<svg class="custom-icon" xmlns="http://www.w3.org/2000/svg" viewBox="0 0 100 100" style="height:100px;width:100px"><path class="inner-shape" d="M50 13.25c-20.297 0-36.75 16.453-36.75 36.75S29.703 86.75 50 86.75 86.75 70.297 86.75 50 70.296 13.25 50 13.25zm21.824 58.574c-2.836 2.837-6.138 5.063-9.812 6.618-.934.394-1.882.74-2.842 1.04v-5.508c0-2.895-.993-5.024-2.98-6.388 1.245-.12 2.387-.287 3.428-.502 1.04-.216 2.14-.527 3.302-.934 1.16-.407 2.2-.892 3.122-1.454.92-.562 1.807-1.292 2.656-2.19s1.56-1.913 2.135-3.05 1.03-2.5 1.363-4.09c.335-1.59.503-3.344.503-5.258 0-3.71-1.21-6.866-3.63-9.475 1.1-2.87.98-5.993-.36-9.366l-.9-.108c-.62-.08-1.74.19-3.357.79-1.615.59-3.427 1.57-5.437 2.94-2.847-.79-5.8-1.19-8.865-1.19-3.087 0-6.03.393-8.83 1.183-1.267-.86-2.47-1.573-3.606-2.135-1.138-.563-2.047-.945-2.73-1.15-.68-.2-1.315-.328-1.9-.376-.587-.048-.963-.06-1.13-.036-.168.022-.288.05-.36.07-1.34 3.398-1.458 6.52-.357 9.367-2.417 2.606-3.625 5.764-3.625 9.473 0 1.915.166 3.668.5 5.26.337 1.59.79 2.955 1.365 4.09.574 1.137 1.286 2.154 2.135 3.05s1.735 1.63 2.656 2.19c.92.564 1.963 1.047 3.123 1.454 1.16.406 2.26.717 3.3.933 1.04.214 2.184.382 3.428.5-1.96 1.34-2.942 3.47-2.942 6.39v5.614c-1.085-.324-2.153-.705-3.2-1.15-3.676-1.554-6.978-3.78-9.814-6.617-2.837-2.836-5.063-6.138-6.617-9.812-1.61-3.8-2.424-7.84-2.424-12.01s.817-8.21 2.425-12.01c1.555-3.675 3.78-6.977 6.618-9.81s6.138-5.066 9.812-6.62c3.8-1.61 7.842-2.425 12.012-2.425s8.21.817 12.01 2.425c3.674 1.554 6.975 3.78 9.81 6.617 2.837 2.837 5.06 6.14 6.617 9.813 1.614 3.807 2.43 7.847 2.43 12.017s-.816 8.21-2.424 12.012c-1.553 3.67-3.78 6.973-6.615 9.81z" fill="#33494C"/></svg>