<svg class="custom-icon" xmlns="http://www.w3.org/2000/svg" viewBox="0 0 100 100" style="height:100px;width:100px"><path class="inner-shape" d="M50 13.3c-20.3 0-36.8 16.4-36.8 36.7S29.8 86.8 50 86.8 86.8 70.3 86.8 50 70.3 13.2 50 13.2zm21.8 58.5c-2.8 3-6 5-9.8 6.6l-2.8 1V74c0-3-1-5-3-6.4 1.2 0 2.4-.3 3.4-.5 1 0 2.2 0 3.3-.3l3-1.5c1-.6 1.3-1.3 2.2-2.2s1.6-2 2-3 1.2-2.5 1.5-4c.3-1.7.5-3.5.5-5.4 0-3.6-1.2-6.8-3.6-9.4 1-3 1-6-.4-9.5h-1c-.5-.2-1.6 0-3.2.6l-5.4 3c-3-1-6-1-9-1s-6 .4-9 1c-1-1-2.2-1.5-3.4-2-1-.7-2-1-2.7-1-.8-.5-1.4-.6-2-.7H31c-1.3 3.5-1.5 6.6-.4 9.4-2.3 2.6-3.5 5.8-3.5 9.5 0 2 .4 4 .7 5.6.6 1.6 1 3 1.7 4 .6 1.3 1.3 2.3 2 3s1.6 1.5 2.6 2l3 1.5c1.4.5 2.5 1 3.5 1 1 .3 2 .5 3.2.6-1.8 1.6-2.8 3.7-2.8 6.7V80l-3.4-1c-3.7-1.6-7-4-9.8-6.7-3-2.8-5-6-6.8-9.8-1.7-4-2.7-8-2.7-12.2s1-8.2 2.6-12c1.6-3.7 4-7 6.7-9.8s6-5 9.8-6.7C42 20 46 19 50 19s8.2 1 12 2.5c3.7 1.6 7 3.8 9.8 6.7 2.8 2.8 5 6 6.6 9.8C80 41.8 81 45.8 81 50s-1 8.2-2.6 12c-1.5 3.7-3.7 7-6.6 9.8z" fill="#33494C"/></svg>