<svg class="custom-icon" xmlns="http://www.w3.org/2000/svg" viewBox="0 0 100 100" style="height:100px;width:100px"><path class="inner-shape" d="M23.033 67.15c-5.397 0-9.783 4.402-9.783 9.767 0 5.394 4.386 9.748 9.783 9.748 5.417 0 9.796-4.354 9.796-9.748 0-5.365-4.38-9.767-9.798-9.767zM13.26 38.224V52.31c9.173 0 17.8 3.587 24.295 10.086 6.488 6.483 10.07 15.148 10.07 24.354h14.148c0-26.76-21.77-48.525-48.512-48.526zm.02-24.974l-.002 14.093c32.715 0 59.342 26.654 59.342 59.407h14.13c0-40.516-32.964-73.5-73.472-73.5z" fill="#33494C"/></svg>