<svg class="custom-icon" xmlns="http://www.w3.org/2000/svg" viewBox="0 0 100 100" style="height:100px;width:100px"><path class="inner-shape" d="M86.75 27.07c-2.704 1.207-5.61 2.022-8.66 2.39 3.113-1.878 5.504-4.85 6.63-8.393-2.913 1.74-6.14 3-9.575 3.68-2.75-2.947-6.67-4.79-11.007-4.79-8.328 0-15.08 6.792-15.08 15.168 0 1.19.133 2.346.39 3.457-12.533-.634-23.644-6.67-31.08-15.848-1.3 2.24-2.043 4.846-2.043 7.626 0 5.262 2.662 9.906 6.71 12.625-2.473-.078-4.8-.76-6.83-1.897-.002.064-.002.128-.002.192 0 7.35 5.198 13.48 12.096 14.873-1.27.347-2.6.532-3.976.532-.972 0-1.917-.095-2.838-.272 1.92 6.026 7.487 10.412 14.086 10.534-5.16 4.068-11.663 6.493-18.728 6.493-1.218 0-2.418-.072-3.597-.212 6.673 4.304 14.6 6.815 23.115 6.815 27.736 0 42.904-23.112 42.904-43.157 0-.658-.016-1.31-.045-1.963 2.947-2.14 5.504-4.81 7.526-7.852z" fill="#33494C"/></svg>