<?xml version="1.0" standalone="no"?>
<!DOCTYPE svg PUBLIC "-//W3C//DTD SVG 1.1//EN" "http://www.w3.org/Graphics/SVG/1.1/DTD/svg11.dtd" >
<svg xmlns="http://www.w3.org/2000/svg" xmlns:xlink="http://www.w3.org/1999/xlink" version="1.1">
<metadata></metadata>
<defs>
<font id="infiniregular" horiz-adv-x="1024" >
<font-face units-per-em="2048" ascent="1638" descent="-410" />
<missing-glyph horiz-adv-x="409" />
<glyph unicode="ffj" horiz-adv-x="1746" d="M807 1024l-4 129q-4 95 12 158q-85 51 -215 51q-112 0 -156 -58.5t-49 -173.5v-106h412zM1294 -512l-102 158v4q108 0 146.5 48.5t41.5 176.5l17 881l-19 131h-393l25 -887h-224l27 887h-420l25 -887h-223l26 887h-170v157l164 -20l-2 147q-2 48 5 93.5t31 96.5t63 88.5 t108 62t160 24.5q39 0 88 -7t67 -16l90 -182q33 108 130.5 177t269.5 69q69 0 148 -9.5t122 -25.5l41 -221h-4q-71 36 -157 59t-150 23q-70 0 -117 -19.5t-72.5 -60.5t-36 -90t-12.5 -121v-94l590 26l6 -1138q2 -70 -3 -122t-22 -104.5t-48.5 -88.5t-86 -63.5t-129.5 -39.5z " />
<glyph unicode="fj" horiz-adv-x="1153" d="M700 -512l-102 158v4q108 0 146.5 48.5t41.5 176.5l17 881l-19 131h-391l25 -887h-223l26 887h-170v157l164 -20l-4 129q-2 56 6 108.5t35 112t71.5 103t123.5 72t184 28.5q69 0 148 -9.5t122 -25.5l41 -221h-4q-71 36 -157 59t-150 23q-69 0 -115.5 -20t-71.5 -60.5 t-36 -89.5t-13 -121v-94l588 26l6 -1138q2 -70 -3 -122t-22 -104.5t-48.5 -88.5t-86 -63.5t-129.5 -39.5z" />
<glyph unicode="&#xfb00;" horiz-adv-x="1277" d="M395 1024h412l-4 129q-3 82 14 162q-99 47 -215 47q-114 0 -158 -58.5t-49 -173.5v-106zM393 887l25 -887h-223l26 887h-170v157l164 -20l-4 147q-2 48 5 93.5t31 96.5t63.5 88.5t109.5 62t162 24.5q38 0 86.5 -7t66.5 -16l88 -178q67 242 320 242q85 0 125 -12l41 -197 h-4q-90 35 -146 35q-41 0 -70.5 -14t-48 -37.5t-30 -62t-16.5 -79.5t-7 -98v-90l287 22v-157h-289l25 -887h-224l27 887h-420z" />
<glyph unicode="&#xfb01;" horiz-adv-x="1171" d="M393 887l25 -887h-223l26 887h-170v157l164 -20l-4 129q-1 38 2.5 75.5t15 80.5t31 80.5t52.5 72.5t76.5 60t106 40t138.5 15q69 0 148 -9.5t122 -25.5l41 -221h-4q-71 36 -157 59t-150 23q-70 0 -117 -19.5t-72.5 -60.5t-36 -90t-12.5 -121v-94l592 26l29 -1044h-230 l27 887h-420z" />
<glyph unicode="&#xfb02;" horiz-adv-x="1165" d="M395 1024h414l-10 291q-89 47 -209 47q-105 0 -150 -60.5t-45 -171.5v-106zM418 0h-223l26 887h-170v157l164 -20l-4 147q-2 48 4.5 93.5t29.5 96.5t61 88.5t105 62t156 24.5q103 0 152 -16l78 -183l-9 240h224l-25 -709l25 -868h-224l27 868v19h-422z" />
<glyph unicode="&#xfb03;" horiz-adv-x="1763" d="M807 1024l-4 129q-4 95 12 158q-85 51 -213 51q-114 0 -158 -58.5t-49 -173.5v-106h412zM987 1018l592 26l29 -1044h-230l27 887h-420l25 -887h-224l27 887h-420l25 -887h-223l26 887h-170v157l164 -20l-2 147q-2 48 5 93.5t31 96.5t63 88.5t109 62t161 24.5 q38 0 86.5 -7t66.5 -16l90 -182q33 108 130.5 177t269.5 69q69 0 148 -9.5t122 -25.5l41 -221h-4q-71 36 -157 59t-150 23q-70 0 -117 -19.5t-72.5 -60.5t-36 -90t-12.5 -121v-94z" />
<glyph unicode="&#xfb04;" horiz-adv-x="1759" d="M809 1024l-4 147q-3 69 12 140q-84 51 -215 51q-114 0 -158 -58.5t-49 -173.5v-106h414zM989 1024h414l-10 291q-89 47 -209 47q-105 0 -150 -60.5t-45 -171.5v-106zM418 0h-223l26 887h-170v157l164 -20l-2 147q-2 48 5 93.5t31 96.5t63 88.5t109 62t161 24.5 q38 0 87.5 -7t67.5 -16l88 -178q30 87 110.5 144t215.5 57q110 0 162 -16l78 -177l-9 234h224l-25 -709l25 -868h-224l27 887h-422l25 -887h-224l27 887h-422z" />
<glyph horiz-adv-x="0" />
<glyph unicode="&#xd;" horiz-adv-x="682" />
<glyph unicode=" "  horiz-adv-x="409" />
<glyph unicode="&#x09;" horiz-adv-x="409" />
<glyph unicode="&#xa0;" horiz-adv-x="409" />
<glyph unicode="!" horiz-adv-x="669" d="M219 1536h230l-48 -1079h-135zM334 -20q-54 0 -91.5 34t-37.5 90q0 61 37 95t92 34q56 0 93.5 -34t37.5 -95q0 -56 -38 -90t-93 -34z" />
<glyph unicode="&#x22;" horiz-adv-x="860" d="M133 1495h256l-192 -532h-115zM543 1495h256l-193 -532h-114z" />
<glyph unicode="#" horiz-adv-x="1357" d="M799 412l71 200h-311l-72 -200h312zM651 4l90 252h-311l-92 -256h-162v4l90 252h-225l41 156h242l71 200h-225l41 156h242l92 256h162v-4l-91 -252h312l92 256h162v-4l-90 -252h225l-41 -156h-242l-71 -200h225l-41 -156h-242l-92 -256h-162v4z" />
<glyph unicode="$" horiz-adv-x="937" d="M393 -293v277q-128 11 -221 67l-39 223h4q94 -70 174.5 -106.5t167.5 -36.5q66 0 102.5 33t36.5 90q0 52 -35 88.5t-104 65.5l-135 57q-221 94 -221 291q0 112 72.5 186t197.5 96v176l176 103h4v-279q96 -10 189 -49l37 -233h-4q-71 53 -156 80.5t-164 27.5 q-72 0 -112.5 -27.5t-40.5 -72.5q0 -46 34 -82.5t117 -73.5l105 -47q126 -58 181.5 -122t55.5 -158q0 -106 -62.5 -185t-179.5 -104v-182l-176 -103h-4z" />
<glyph unicode="%" horiz-adv-x="1892" d="M393 688q-93 0 -164.5 61t-109 164t-37.5 230q0 192 81 301.5t230 109.5q150 0 232 -109.5t82 -301.5q0 -125 -37.5 -228t-110 -165t-166.5 -62zM432 0h-207v4l1227 1532h207v-4zM393 817q51 0 84 43.5t46.5 110t13.5 155.5q0 283 -144 283q-143 0 -143 -281 q0 -90 13 -157t46 -110.5t84 -43.5zM1497 -20q-93 0 -164.5 60.5t-109 163.5t-37.5 230q0 192 81 302t230 110q150 0 231.5 -110t81.5 -302q0 -125 -37.5 -227.5t-109.5 -164.5t-166 -62zM1497 109q51 0 84 43.5t46 110t13 155.5q0 282 -143 282t-143 -280q0 -90 13 -157 t46 -110.5t84 -43.5z" />
<glyph unicode="&#x26;" horiz-adv-x="1538" d="M432 1352l211 -277l248 277h-459zM500 170q20 0 37.5 2.5t35.5 11.5t30.5 15t31.5 23.5t29 26t32 34.5t31 37t36 45t38 47l51 63l-225 297l-166 -184q-65 -71 -97 -131t-32 -127q0 -68 46.5 -114t121.5 -46zM954 303q-115 -141 -149 -176q-104 -108 -215 -135 q-48 -12 -103 -12q-89 0 -160.5 30t-114.5 79t-66 108.5t-23 121.5q0 101 38.5 182t114.5 165l234 260l-322 422v188h916v-238l-342 -376l221 -287l375 463h4v-293l-262 -324l366 -477v-4h-252l-245 322z" />
<glyph unicode="'" horiz-adv-x="450" d="M133 1495h256l-192 -532h-115z" />
<glyph unicode="(" horiz-adv-x="681" d="M133 610q0 298 97.5 548t287.5 398h144v-4q-93 -100 -157.5 -216t-99 -238.5t-49 -239.5t-14.5 -248q0 -596 320 -944v-4h-144q-190 148 -287.5 398t-97.5 550z" />
<glyph unicode=")" horiz-adv-x="681" d="M549 608q0 -298 -97.5 -548t-287.5 -398h-144q93 100 158 216.5t99 240t48.5 240.5t14.5 249q0 608 -320 951h144q190 -147 287.5 -399t97.5 -552z" />
<glyph unicode="*" horiz-adv-x="829" d="M522 862l-110 248l-109 -246l-176 127l201 183l-267 26l66 207l235 -135l-57 264h217l-55 -262l233 133l68 -207l-270 -26l200 -183z" />
<glyph unicode="+" horiz-adv-x="1126" d="M965 479h-316v-315l-172 -21v336h-336l21 172h315v316l172 20v-336h336z" />
<glyph unicode="," horiz-adv-x="608" d="M225 227h260l-284 -614h-109z" />
<glyph unicode="-" horiz-adv-x="874" d="M711 479h-568l21 174h567z" />
<glyph unicode="." horiz-adv-x="575" d="M287 -20q-54 0 -91.5 34t-37.5 90q0 61 37 95t92 34q56 0 93.5 -34t37.5 -95q0 -56 -38 -90t-93 -34z" />
<glyph unicode="/" horiz-adv-x="1062" d="M238 -174h-177v4l744 1747h176v-4z" />
<glyph unicode="0" horiz-adv-x="1245" d="M623 -20q-127 0 -229.5 48t-164.5 126.5t-95 172t-32 191.5q0 238 143 382t378 144t377.5 -144t142.5 -382q-1 -76 -21.5 -151.5t-63.5 -145t-103.5 -123.5t-146 -86t-185.5 -32zM623 147q144 0 230.5 101t86.5 260q-1 158 -88 252t-229 94t-230 -94.5t-88 -249.5 q0 -160 87 -261.5t231 -101.5z" />
<glyph unicode="1" horiz-adv-x="722" d="M305 0l45 731l-268 -104v86l330 311h114l23 -1024h-244z" />
<glyph unicode="2" horiz-adv-x="964" d="M51 0v29l363 391q14 15 38.5 41t34.5 37t28.5 31.5t25.5 29.5t20 25.5t17.5 25.5l11.5 23t9.5 25.5t4.5 25t2 27.5q0 69 -49.5 106t-128.5 37q-74 0 -139.5 -29.5t-149.5 -87.5h-4l37 250q50 26 128.5 41.5t143.5 15.5q176 0 270.5 -87.5t94.5 -227.5q0 -102 -63 -195.5 t-211 -230.5l-181 -170l535 76h4l-43 -209h-799z" />
<glyph unicode="3" horiz-adv-x="1005" d="M440 -532q-166 0 -338 71l-41 240h17q135 -80 211 -112t164 -32q141 0 214.5 80.5t73.5 206.5q0 90 -46.5 156.5t-117.5 97.5t-155 31q-80 0 -152 -19v72l355 625l-557 -54h-5l41 193h834v-20l-426 -637q135 -3 234.5 -63t148.5 -155.5t49 -211.5q0 -64 -15 -126 t-51.5 -125.5t-92 -110.5t-145 -77t-200.5 -30z" />
<glyph unicode="4" horiz-adv-x="1366" d="M1335 0h-379l17 -512h-225l16 512h-733v37l905 1012h37l-23 -887h385v-162zM768 162l-6 456l-422 -456h428z" />
<glyph unicode="5" horiz-adv-x="1107" d="M502 -532q-161 0 -338 71l-41 240h16q150 -92 225.5 -118t155.5 -26q138 0 210.5 83t72.5 221q0 122 -87.5 195t-236.5 73q-107 0 -227 -53h-29l-26 870h776l31 -199h-5l-585 80l-23 -551q62 27 168 27q187 0 317 -120.5t130 -303.5q0 -74 -16.5 -142.5t-54.5 -132.5 t-95 -111t-143.5 -75t-194.5 -28z" />
<glyph unicode="6" horiz-adv-x="1175" d="M1073 465q0 -94 -32 -180t-92 -154.5t-154 -109.5t-209 -41q-119 0 -213.5 42.5t-152.5 113.5t-88 158.5t-30 182.5q0 55 14 115.5t43 124.5t52 109.5t61.5 113t51.5 92.5l268 504h272v-4l-487 -707q122 97 264 97q182 0 307 -129t125 -328zM305 444q0 -127 73.5 -212 t207.5 -85q136 0 210 84t74 213t-74.5 208t-211.5 79q-112 0 -195.5 -74t-83.5 -213z" />
<glyph unicode="7" horiz-adv-x="1079" d="M154 -512v4l661 1337h-743v195h987v-16l-649 -1520h-256z" />
<glyph unicode="8" horiz-adv-x="1179" d="M590 -20q-114 0 -208.5 42.5t-154.5 111t-92.5 151.5t-32.5 168q0 128 61 229t177 154q-77 57 -122.5 144t-45.5 196q0 167 114 273.5t304 106.5t304 -106.5t114 -273.5q0 -110 -45.5 -196t-122.5 -144q115 -54 176 -155.5t61 -227.5q0 -86 -32.5 -169t-92 -151.5 t-154 -110.5t-208.5 -42zM590 903q102 0 158.5 73t56.5 169q0 89 -56.5 155t-158.5 66t-158.5 -66t-56.5 -155q0 -95 56.5 -168.5t158.5 -73.5zM590 147q92 0 158.5 43.5t96 108.5t29.5 143q0 121 -75.5 202t-208.5 81q-134 0 -209.5 -79.5t-75.5 -203.5q0 -120 74.5 -207.5 t210.5 -87.5z" />
<glyph unicode="9" horiz-adv-x="1163" d="M102 582q0 199 128 330.5t354 131.5q118 0 210.5 -37.5t150 -103.5t87 -150.5t29.5 -183.5q0 -41 -6.5 -84t-22.5 -91t-28 -82.5t-38 -88t-37.5 -76t-41.5 -78.5t-35 -65l-274 -516h-273v4l494 719q-120 -96 -271 -96q-176 0 -301 138t-125 329zM858 582 q0 115 -71.5 192.5t-202.5 77.5q-133 0 -206 -76t-73 -194q0 -135 73.5 -218t207.5 -83q52 0 99 18t86.5 53.5t63 95t23.5 134.5z" />
<glyph unicode=":" horiz-adv-x="575" d="M287 709q-54 0 -91.5 34.5t-37.5 90.5q0 61 37 95t92 34q56 0 93.5 -34t37.5 -95q0 -56 -38 -90.5t-93 -34.5zM287 -20q-54 0 -91.5 34t-37.5 90q0 61 37 95t92 34q56 0 93.5 -34t37.5 -95q0 -56 -38 -90t-93 -34z" />
<glyph unicode=";" horiz-adv-x="649" d="M360 709q-54 0 -91.5 34.5t-37.5 90.5q0 61 37 95t92 34q57 0 94.5 -34t37.5 -95q0 -56 -38.5 -90.5t-93.5 -34.5zM227 227h260l-284 -614h-109z" />
<glyph unicode="&#x3c;" horiz-adv-x="1126" d="M131 557v125l823 383v-215l-612 -234l612 -231v-215z" />
<glyph unicode="=" horiz-adv-x="1126" d="M965 709h-824l21 172h823zM965 250h-824l21 172h823z" />
<glyph unicode="&#x3e;" horiz-adv-x="1126" d="M995 680v-125l-823 -383v215l612 234l-612 231v215z" />
<glyph unicode="?" horiz-adv-x="1067" d="M354 621q21 17 64.5 51t63 49.5t55.5 45t52.5 45.5t43.5 43.5t39.5 46.5t29.5 46.5t24.5 51.5t13 53t5.5 59q0 111 -78.5 185.5t-207.5 74.5q-88 0 -164 -35t-170 -108h-2l27 264q148 63 339 63q124 0 226 -47.5t165.5 -143t63.5 -222.5q0 -103 -39 -195t-118.5 -176.5 t-182 -159t-246.5 -157.5h-4v166zM457 -20q-54 0 -91.5 34t-37.5 90q0 61 37 95t92 34q56 0 93.5 -34t37.5 -95q0 -56 -38 -90t-93 -34z" />
<glyph unicode="@" horiz-adv-x="1689" d="M883 -270h-740v1489h1403v-1158h-628l16 179l-64 -66q-4 -4 -19 -19.5t-20 -20.5l-18.5 -18.5t-19.5 -18t-18 -15t-19.5 -14.5t-19.5 -10.5t-21 -9.5t-20.5 -5t-22.5 -2q-94 0 -145.5 87t-51.5 241q0 128 39 234.5t106 177t155.5 109t187.5 38.5q98 0 213 -10l-52 -728 l242 29v834h-1042v-1198l581 57zM743 207q25 0 46 17t65 65l98 108l45 346q-27 9 -59 9q-83 0 -148 -55.5t-98 -142t-33 -185.5q0 -162 84 -162z" />
<glyph unicode="A" horiz-adv-x="1447" d="M967 584l-246 667l-240 -667h486zM1184 0l-166 446h-586l-160 -446h-262v4l699 1583h71l658 -1583v-4h-254z" />
<glyph unicode="B" horiz-adv-x="1239" d="M195 1536h395q237 0 365 -96t128 -254q0 -130 -75 -226t-207 -131v-2q166 -38 245.5 -136t79.5 -228q0 -71 -21 -136.5t-68.5 -125.5t-116.5 -104t-172 -70.5t-228 -26.5h-325l30 807zM412 807l24 -635h137q161 0 248.5 77.5t87.5 229.5q0 117 -87 190t-222 81v145 q279 38 279 244q0 98 -79.5 156.5t-244.5 58.5h-121z" />
<glyph unicode="C" horiz-adv-x="1529" d="M1372 90q-66 -40 -190.5 -75t-251.5 -35q-169 0 -314 54t-252.5 154t-169 251t-61.5 335q0 365 218 573.5t591 208.5q223 0 444 -71l41 -291h-4q-113 80 -235 120t-289 40q-72 0 -144.5 -17t-147 -58.5t-131 -102.5t-92.5 -158t-36 -217q0 -295 153.5 -471t432.5 -176 q232 0 475 172h4z" />
<glyph unicode="D" horiz-adv-x="1587" d="M412 807l24 -635h238q254 0 408.5 167t154.5 468q-1 126 -41 229t-110.5 172t-166.5 106.5t-208 37.5h-277zM195 0l30 807l-30 729h514q158 0 293 -47.5t236 -138t158.5 -232.5t57.5 -321q0 -226 -95.5 -407t-274 -285.5t-410.5 -104.5h-479z" />
<glyph unicode="E" horiz-adv-x="1165" d="M195 0l30 807l-30 729h796l41 -213h-4l-592 86l-22 -537l542 19l-20 -191l-522 60l24 -639l611 115h4l-43 -236h-815z" />
<glyph unicode="F" horiz-adv-x="1159" d="M950 664l-534 59l26 -723h-247l30 807l-30 729h819l43 -205h-4l-617 82l-22 -579l557 20z" />
<glyph unicode="G" horiz-adv-x="1589" d="M958 1556q244 0 451 -71l41 -291h-4q-113 80 -231.5 120t-296.5 40q-75 0 -150.5 -17t-152.5 -58.5t-136 -102.5t-96 -158t-37 -217q0 -293 170 -470t461 -177q65 0 145 18t135 45l-34 531v4h264l-37 -617q-78 -61 -208 -108t-292 -47q-141 0 -265 33t-225 99.5 t-174 160.5t-113 222t-40 279q0 367 218 574.5t607 207.5z" />
<glyph unicode="H" horiz-adv-x="1650" d="M1208 0l27 723h-819l26 -723h-247l30 807l-30 729h247l-28 -659h823l-29 659h248l-31 -729l31 -807h-248z" />
<glyph unicode="I" horiz-adv-x="636" d="M195 0l30 807l-30 729h247l-30 -729l30 -807h-247z" />
<glyph unicode="J" horiz-adv-x="958" d="M66 244q74 -29 111.5 -42t88.5 -23.5t101 -10.5q113 0 160 94.5t38 308.5l-39 965h248l-18 -1100q-3 -223 -95 -339.5t-292 -116.5q-137 0 -246 34l-62 230h5z" />
<glyph unicode="K" horiz-adv-x="1411" d="M1391 0h-301l-574 809v82l399 645h293v-4l-520 -653l703 -875v-4zM195 0l30 807l-30 729h247l-30 -729l30 -807h-247z" />
<glyph unicode="L" horiz-adv-x="1161" d="M195 0l30 807l-30 729h247l-34 -1407l657 129h4l-41 -258h-833z" />
<glyph unicode="M" horiz-adv-x="1921" d="M954 0l-444 1073l-164 -1073h-254l326 1536h102l447 -1098l456 1098h97l329 -1536h-254l-170 1092l-467 -1092h-4z" />
<glyph unicode="N" horiz-adv-x="1619" d="M1313 0l-953 1141l52 -1141h-238l53 1536h64l958 -1153l-41 1153h238l-70 -1536h-63z" />
<glyph unicode="O" horiz-adv-x="1751" d="M877 -20q-220 0 -391 106t-262 286.5t-91 403.5q0 176 57 323.5t156.5 247t236 154.5t294.5 55q157 0 293 -55t235 -154.5t156 -247t57 -323.5q0 -218 -90.5 -398.5t-261 -289t-389.5 -108.5zM877 156q110 0 206.5 44t167.5 123.5t111.5 198t40.5 260.5q0 258 -145 415 t-381 157q-235 0 -381 -157.5t-146 -412.5q0 -143 40.5 -262t111.5 -198.5t167.5 -123.5t207.5 -44z" />
<glyph unicode="P" horiz-adv-x="1214" d="M412 807l30 -807h-247l30 807l-30 729h411q243 0 379.5 -116t136.5 -304q0 -224 -133 -357.5t-409 -142.5v127q151 10 241 88.5t90 229.5q0 142 -85 217.5t-275 75.5h-117z" />
<glyph unicode="Q" horiz-adv-x="1779" d="M1698 -276h-4l-924 256q-191 26 -336.5 137.5t-223 283t-77.5 375.5q0 176 57 323.5t156.5 247t236 154.5t294.5 55q157 0 293 -55t235 -154.5t156 -247t57 -323.5q0 -280 -148.5 -493.5t-398.5 -278.5h586zM877 156q110 0 206.5 44t167.5 123.5t111.5 198t40.5 260.5 q0 258 -145 415t-381 157q-235 0 -381 -157.5t-146 -412.5q0 -143 40.5 -262t111.5 -198.5t167.5 -123.5t207.5 -44z" />
<glyph unicode="R" horiz-adv-x="1292" d="M412 807l30 -807h-247l30 807l-30 729h413q215 0 338 -105t123 -274q0 -151 -79.5 -257t-241.5 -150l493 -746v-4h-295l-366 723v115q133 15 205.5 83.5t72.5 186.5q0 106 -75.5 175t-219.5 69h-129z" />
<glyph unicode="S" horiz-adv-x="1132" d="M399 762q-258 171 -258 397q0 176 122 286.5t347 110.5q91 0 186 -12.5t148 -27.5l41 -283h-4q-111 72 -207 108.5t-205 36.5q-93 0 -152 -48t-59 -136q0 -76 40 -129.5t147 -126.5l133 -90q77 -52 130.5 -97.5t99.5 -100.5t68.5 -117t22.5 -132q0 -77 -25.5 -148 t-78.5 -134t-147.5 -101t-219.5 -38q-163 0 -364 69l-41 279h4q147 -100 238 -141.5t196 -41.5t163 59.5t58 151.5q0 83 -42.5 147t-137.5 126z" />
<glyph unicode="T" horiz-adv-x="1357" d="M1333 1288l-569 101l37 -1389h-246l37 1389l-567 -101h-5l43 248h1231l43 -248h-4z" />
<glyph unicode="U" horiz-adv-x="1597" d="M801 156q187 0 294 126t107 369l-37 885h248l-24 -885q0 -315 -153 -493t-435 -178q-281 0 -436.5 178.5t-155.5 492.5l-25 885h248l-37 -885q0 -242 110.5 -368.5t295.5 -126.5z" />
<glyph unicode="V" horiz-adv-x="1427" d="M727 -51h-72l-635 1583v4h254l443 -1245l428 1245h262v-4z" />
<glyph unicode="W" horiz-adv-x="2068" d="M1341 -51l-321 1012l-334 -1012h-76l-579 1583v4h258l373 -1194l333 1194h58l348 -1219l379 1219h258v-4l-621 -1583h-76z" />
<glyph unicode="X" horiz-adv-x="1374" d="M1055 0l-396 668l-352 -668h-287v4l547 819l-442 709v4h278l289 -537l289 537h266v-4l-465 -684l572 -844v-4h-299z" />
<glyph unicode="Y" horiz-adv-x="1316" d="M793 0h-261l31 692l-543 840v4h279l381 -713l362 713h254v-4l-536 -836z" />
<glyph unicode="Z" horiz-adv-x="1345" d="M1200 0h-1098v20l832 1377l-782 -99h-5l41 238h1055v-20l-833 -1379l827 101h4z" />
<glyph unicode="[" horiz-adv-x="696" d="M676 -340h-502v1896h502v-194h-4l-303 61v-1630l303 62h4v-195z" />
<glyph unicode="\" horiz-adv-x="1062" d="M981 -174h-176l-744 1747v4h177l743 -1747v-4z" />
<glyph unicode="]" horiz-adv-x="686" d="M10 1556h502v-1896h-502v195h4l303 -62v1630l-303 -61h-4v194z" />
<glyph unicode="^" horiz-adv-x="1128" d="M104 733l381 803h160l379 -803h-221l-240 627l-237 -627h-222z" />
<glyph unicode="_" d="M1024 -350h-1024v192h1024v-192z" />
<glyph unicode="`" d="M315 1552v4h254l140 -397h-136z" />
<glyph unicode="a" horiz-adv-x="1050" d="M481 129q87 0 203 90l6 178q-74 41 -172 41q-94 0 -148.5 -41t-54.5 -114q0 -69 45.5 -111.5t120.5 -42.5zM678 0l2 96q-155 -116 -262 -116q-143 0 -224 82t-81 206q0 75 28 132t73 91.5t108.5 56.5t127.5 30t138 8q28 0 106 -4l2 53q2 72 -12.5 120t-45.5 71.5 t-65.5 32.5t-83.5 9q-136 0 -327 -86h-4l39 240q209 22 321 22q176 0 268.5 -99.5t98.5 -276.5l22 -668h-229z" />
<glyph unicode="b" horiz-adv-x="1157" d="M571 -20q-105 0 -217.5 33.5t-195.5 84.5l24 770l-28 709h227l-27 -705q43 37 73 60.5t75 53t90.5 44t89.5 14.5q76 0 139 -29.5t105.5 -78.5t72 -114t43 -135.5t13.5 -143.5q0 -49 -5.5 -97.5t-20 -105.5t-37.5 -107t-61.5 -97t-87 -81t-119 -54.5t-153.5 -20.5z M590 135q128 0 194 105.5t66 283.5q-3 151 -69.5 231.5t-190.5 80.5q-110 0 -232 -76l17 -549q90 -76 215 -76z" />
<glyph unicode="c" horiz-adv-x="972" d="M600 1044q155 0 248 -49l41 -239h-4q-137 102 -291 102q-126 0 -207.5 -85t-81.5 -253q0 -189 83.5 -287t225.5 -98q74 0 138 25t135 69h4l-21 -143q-41 -41 -118.5 -73.5t-161.5 -32.5q-216 0 -352 153.5t-136 390.5q0 126 40.5 227t110.5 164t158.5 96t188.5 33z" />
<glyph unicode="d" horiz-adv-x="1163" d="M600 135q94 0 188 62l21 608q-95 53 -207 53q-74 0 -132 -28.5t-93 -77.5t-52.5 -109.5t-17.5 -128.5q0 -183 75.5 -281t217.5 -98zM788 0l-2 78q-135 -98 -251 -98q-133 0 -233.5 75t-150 195t-49.5 266q0 123 39.5 224.5t107 167t156.5 101t189 35.5q117 0 211 -40 l-23 573h228l-27 -709l27 -868h-222z" />
<glyph unicode="e" horiz-adv-x="1083" d="M905 84q-110 -104 -325 -104q-117 0 -210.5 45t-150.5 121t-87 170t-30 198q0 129 36.5 231.5t99.5 167t143 98t170 33.5q222 0 332.5 -156.5t81.5 -436.5h-658q15 -149 91.5 -232.5t236.5 -83.5q130 0 287 92h4zM307 553l473 61q9 109 -50 177.5t-183 68.5 q-45 0 -86 -17t-76.5 -51.5t-56.5 -96t-21 -142.5z" />
<glyph unicode="f" horiz-adv-x="686" d="M393 887l27 -887h-227l28 887h-170v157l164 -20l-4 129q-2 45 2.5 89.5t17 94t38 91t61.5 76t93 54t128 19.5q85 0 125 -12l41 -197h-4q-90 35 -146 35q-41 0 -70.5 -14t-48 -37.5t-30 -62t-16.5 -79.5t-7 -98v-90l287 22v-157h-289z" />
<glyph unicode="g" horiz-adv-x="1167" d="M600 135q102 0 207 72l6 594q-92 57 -211 57q-74 0 -132 -28.5t-93 -77.5t-52.5 -109.5t-17.5 -128.5q0 -183 75.5 -281t217.5 -98zM551 -532q-138 0 -313 38l-62 240h8q95 -43 141.5 -62t112 -37t117.5 -18q126 0 185.5 81t62.5 253l2 129q-141 -112 -270 -112 q-133 0 -233.5 75t-150 195t-49.5 266q0 123 39.5 224.5t107 167t156.5 101t189 35.5q122 0 219 -43l197 23h4l-23 -250l15 -725q1 -50 -1.5 -95.5t-13 -106.5t-28.5 -111t-53 -101.5t-81.5 -86.5t-118 -57.5t-159.5 -22.5z" />
<glyph unicode="h" horiz-adv-x="1157" d="M588 840q-104 3 -232 -86l23 -754h-227l28 868l-28 709h227l-27 -709v-4l41 35q82 68 156.5 107t148.5 38q139 1 213 -99t80 -277l23 -668h-228l17 600q4 139 -52 190.5t-163 49.5z" />
<glyph unicode="i" horiz-adv-x="540" d="M266 1452q56 0 92.5 -31.5t36.5 -85.5q0 -57 -36.5 -91t-92.5 -34q-53 0 -90 34t-37 91q0 54 37 85.5t90 31.5zM143 1024h213v-4l29 -1020h-229l24 756l-37 264v4z" />
<glyph unicode="j" horiz-adv-x="530" d="M256 1452q56 0 92.5 -31.5t36.5 -85.5q0 -57 -36.5 -91t-92.5 -34q-53 0 -90 34t-37 91q0 54 37 85.5t90 31.5zM143 1024h217q1 0 3 -279.5t3.5 -559t0.5 -279.5q2 -70 -3 -122t-22 -104.5t-48.5 -88.5t-86 -63.5t-129.5 -39.5l-103 158v4q108 0 147 49t42 176l16 881 l-37 264v4z" />
<glyph unicode="k" horiz-adv-x="1093" d="M162 0l24 569l-22 1008h225l-33 -989l33 -588h-227zM1063 0h-266l-439 588l404 436h268v-4l-463 -432l496 -584v-4z" />
<glyph unicode="l" horiz-adv-x="534" d="M154 0l28 868l-28 709h227l-27 -709l27 -868h-227z" />
<glyph unicode="m" horiz-adv-x="1728" d="M569 838q-103 0 -204 -78l20 -760h-229l24 758l-37 262v4h213l4 -156l33 29q80 69 149.5 108t141.5 39q187 0 252 -196l55 49q80 69 149.5 108t141.5 39q133 0 204 -100t77 -274l22 -670h-229l18 602q2 71 -11 118.5t-42.5 72.5t-65.5 35t-88 10q-104 0 -211 -80 q6 -45 9 -88l20 -670h-229l20 602q2 71 -11 118.5t-42.5 72.5t-65.5 35t-88 10z" />
<glyph unicode="n" horiz-adv-x="1173" d="M592 840q-102 3 -227 -84l20 -756h-229l24 756l-37 264v4h213l4 -158l39 33q172 145 306 145q139 0 212.5 -99.5t79.5 -276.5l23 -668h-229l18 600q4 139 -53 190.5t-164 49.5z" />
<glyph unicode="o" horiz-adv-x="1163" d="M582 1044q112 0 204 -41t151.5 -111.5t91.5 -164t32 -199.5q0 -114 -32 -213t-91 -174t-151 -118t-205 -43q-150 0 -260.5 75.5t-165 198t-54.5 274.5q0 143 55 259t165.5 186.5t259.5 70.5zM582 135q135 0 205.5 108t70.5 281q0 141 -73.5 237.5t-202.5 96.5 q-130 0 -203.5 -96t-73.5 -238q0 -172 71 -280.5t206 -108.5z" />
<glyph unicode="p" horiz-adv-x="1165" d="M594 135q132 0 200 105.5t68 283.5q-3 151 -70.5 231.5t-193.5 80.5q-98 0 -225 -74l8 -551q90 -76 213 -76zM575 -20q-94 0 -190 26l8 -518h-223l20 1288l-36 244v4h211l6 -147q85 75 162.5 121t158.5 46q95 0 168.5 -44.5t116.5 -118.5t64.5 -160.5t21.5 -179.5 q0 -49 -5.5 -97.5t-20 -105t-37.5 -106.5t-61.5 -97t-88 -80.5t-120 -54t-155.5 -20.5z" />
<glyph unicode="q" horiz-adv-x="1171" d="M1018 -512h-223l8 602q-139 -110 -268 -110q-133 0 -233.5 75t-150 195t-49.5 266q0 246 139 387t353 141q121 0 215 -40l201 20h4l-23 -250zM600 135q103 0 205 72l8 594q-92 57 -211 57q-78 0 -136.5 -28.5t-92 -78t-50 -109t-16.5 -128.5q0 -183 75.5 -281t217.5 -98z " />
<glyph unicode="r" horiz-adv-x="835" d="M598 827q-54 0 -117 -24t-116 -60l20 -743h-229l24 756l-37 264v4h213l4 -168l52 43q6 5 27.5 23t28.5 24t26.5 21.5t29 21.5t27.5 17.5t30 16t28.5 11t31.5 8.5t31 2q53 0 82 -4l41 -254h-4q-83 41 -193 41z" />
<glyph unicode="s" horiz-adv-x="937" d="M475 864q-72 0 -112.5 -27.5t-40.5 -72.5q0 -46 34 -82.5t117 -73.5l105 -47q126 -58 181.5 -122t55.5 -158q0 -130 -90.5 -215.5t-261.5 -85.5q-170 0 -291 71l-39 223h4q94 -70 174.5 -106.5t167.5 -36.5q66 0 102.5 33t36.5 90q0 52 -35 88.5t-104 65.5l-135 57 q-221 94 -221 291q0 131 98.5 209.5t259.5 78.5q149 0 281 -55l37 -233h-4q-71 53 -156 80.5t-164 27.5z" />
<glyph unicode="t" horiz-adv-x="788" d="M356 1262h27l2 -244l307 26v-188l-307 25l2 -506q0 -129 51.5 -184.5t128.5 -55.5q65 0 125 29h4l-20 -113q-27 -30 -81 -50.5t-112 -20.5q-134 0 -216 86.5t-79 244.5l11 586l-158 12v25z" />
<glyph unicode="u" horiz-adv-x="1150" d="M743 119q-165 -139 -303 -139q-128 0 -196.5 100.5t-71.5 273.5l-6 402l-43 264v4h250l-13 -602q-3 -132 45.5 -185t143.5 -53q115 0 237 84l-20 756h229l-24 -756l37 -264v-4h-213l-4 160z" />
<glyph unicode="v" horiz-adv-x="1028" d="M551 -20h-105l-436 1040v4h240l282 -805l242 805h244v-4z" />
<glyph unicode="w" horiz-adv-x="1474" d="M958 -20l-229 638l-235 -638h-99l-385 1040v4h236l221 -750l223 750h98l248 -766l195 766h233v-4l-405 -1040h-101z" />
<glyph unicode="x" horiz-adv-x="980" d="M276 0h-266v4l402 514l-363 502v4h262l203 -371l193 371h256v-4l-385 -467l393 -549v-4h-258l-236 410z" />
<glyph unicode="y" horiz-adv-x="1060" d="M338 -512h-264v4l370 528l-434 1000v4h248l287 -811l252 811h254v-4z" />
<glyph unicode="z" horiz-adv-x="985" d="M860 0h-788v4l563 918l-512 -86h-4l41 188h753v-4l-561 -916l543 89h4z" />
<glyph unicode="{" horiz-adv-x="651" d="M590 -332q-54 -6 -119 -6q-55 0 -96.5 10.5t-66.5 31.5t-41 44t-23 58.5t-9 62.5t-2 68v319q0 9 0.5 36t0.5 42t-2 42t-6 43.5t-12 38.5t-20 36t-30.5 26.5t-42.5 18.5l-8 2v137l8 2q24 6 42.5 18.5t30.5 26t20 35.5t12 38.5t6 43.5t2 42t-0.5 42.5t-0.5 36.5v319 q0 34 1.5 58t6.5 55t14.5 52t27.5 43t42.5 35.5t61.5 22t84 8.5q65 0 119 -6l41 -174h-4q-77 17 -111 17q-53 0 -78.5 -26t-25.5 -85v-371q0 -57 -1.5 -84.5t-11 -70t-32 -76.5t-60.5 -70q38 -37 60.5 -71.5t32 -77t11 -70t1.5 -84.5v-360q0 -65 25 -93t79 -28q39 0 111 16 h4z" />
<glyph unicode="|" horiz-adv-x="557" d="M362 -512h-167v2089h167v-2089z" />
<glyph unicode="}" horiz-adv-x="651" d="M61 1548q54 6 119 6q66 0 112 -16.5t70 -40t37.5 -64t16 -72t2.5 -81.5v-319q0 -9 -0.5 -36t-0.5 -42t2 -42t6 -43.5t12 -38.5t20 -36t30.5 -26.5t42.5 -18.5l9 -2v-137l-9 -2q-24 -6 -42.5 -18.5t-30.5 -26t-20 -35.5t-12 -38.5t-6 -43.5t-2 -42t0.5 -42.5t0.5 -36.5 v-320q0 -34 -1.5 -58t-6.5 -55t-14.5 -52t-27.5 -43t-42.5 -35.5t-61.5 -22t-84 -8.5q-65 0 -119 6l-41 174h5q72 -16 110 -16q54 0 79.5 25.5t25.5 84.5v371q0 59 1.5 85t10.5 69t31.5 77t60.5 70q-38 37 -60.5 71.5t-31.5 77.5t-10.5 69t-1.5 85v361q0 65 -25.5 93 t-79.5 28q-33 0 -110 -17h-5z" />
<glyph unicode="~" horiz-adv-x="1126" d="M750 397q-67 0 -123.5 26.5t-88.5 57.5t-72.5 57.5t-80.5 26.5q-50 0 -68 -39.5t-18 -128.5l-147 41q7 141 58 218t167 77q56 0 102.5 -17.5t78.5 -42t60 -49t59 -42t64 -17.5q50 0 68 39.5t18 128.5l148 -39q-5 -141 -56.5 -219t-168.5 -78z" />
<glyph unicode="&#xa1;" horiz-adv-x="669" d="M336 1044q54 0 91.5 -34t37.5 -90q0 -61 -37 -95t-92 -34q-56 0 -93.5 34t-37.5 95q0 56 38 90t93 34zM451 -512h-230l47 1079h135z" />
<glyph unicode="&#xa2;" horiz-adv-x="993" d="M481 -293h-4v285q-170 38 -272.5 183.5t-102.5 348.5q0 210 104.5 340.5t270.5 167.5v182l176 103h4v-275q116 -8 191 -47l41 -239h-4q-137 102 -291 102q-126 0 -207.5 -85t-81.5 -253q0 -189 83.5 -287t225.5 -98q74 0 138 25t135 69h4l-21 -143q-32 -32 -90 -60.5 t-123 -39.5v-176z" />
<glyph unicode="&#xa3;" horiz-adv-x="1218" d="M61 0v4l396 551h-291l41 152h264q-63 81 -95.5 125.5t-69.5 106.5t-52.5 117.5t-15.5 114.5q0 167 120.5 276t339.5 109q141 0 269 -40l37 -259h-5q-171 125 -317 125q-105 0 -169 -58.5t-64 -160.5q0 -25 3 -48t13 -49t17 -45t26 -48.5t29 -46.5t37 -51.5t39.5 -50.5 t46 -58t47.5 -59h387l-41 -152h-377l-264 -371h725v-184h-1076z" />
<glyph unicode="&#xa4;" horiz-adv-x="1126" d="M838 199l-150 149q-57 -31 -125 -31t-125 31l-149 -149l-107 135l135 135q-30 55 -30 125t30 125l-135 135l107 135l149 -149q56 30 125 30t125 -30l150 149l106 -135l-135 -135q29 -60 29 -125t-29 -125l135 -135zM563 446q60 0 103 43.5t43 104.5t-43 104t-103 43 q-61 0 -104 -42.5t-43 -104.5t43 -105t104 -43z" />
<glyph unicode="&#xa5;" horiz-adv-x="1173" d="M1061 233h-352l12 -233h-260l12 233h-385l41 152h352l8 164h-401l41 151h244l-322 320v4h285l272 -324l256 324h258v-4l-317 -320h297l-41 -151h-371l8 -164h404z" />
<glyph unicode="&#xa6;" horiz-adv-x="557" d="M362 717h-167v860h167v-860zM362 -512h-167v860h167v-860z" />
<glyph unicode="&#xa7;" horiz-adv-x="972" d="M291 553q0 -92 53.5 -148.5t138.5 -56.5q89 0 144 56.5t55 148.5t-54 148.5t-139 56.5q-89 0 -143.5 -56.5t-54.5 -148.5zM881 553q0 -71 -29 -137.5t-98 -124t-168 -82.5l35 -31q167 -148 167 -301q0 -136 -105.5 -232t-272.5 -96q-114 0 -209 25l-41 238h6 q116 -70 252 -70q73 0 118.5 34.5t45.5 98.5q0 99 -148 221l-164 133q-178 145 -178 324q0 71 29 137.5t98 124t168 82.5l-35 31q-168 149 -168 301q0 136 106 231.5t273 95.5q117 0 209 -24l41 -238h-6q-116 70 -252 70q-73 0 -118.5 -34.5t-45.5 -98.5q0 -99 148 -221 l163 -133q179 -146 179 -324z" />
<glyph unicode="&#xa8;" d="M289 1452q56 0 92.5 -31.5t36.5 -85.5q0 -57 -36.5 -91t-92.5 -34q-53 0 -90 34t-37 91q0 54 37 85.5t90 31.5zM735 1452q56 0 92.5 -31.5t36.5 -85.5q0 -57 -36.5 -91t-92.5 -34q-53 0 -90 34t-37 91q0 54 37 85.5t90 31.5z" />
<glyph unicode="&#xa9;" horiz-adv-x="1552" d="M776 -20q-142 0 -268 52t-217.5 143t-145 221t-53.5 278q0 196 92.5 350.5t248 238t343.5 83.5t343.5 -83.5t248 -238t92.5 -350.5q0 -148 -53.5 -278t-145 -221t-217.5 -143t-268 -52zM776 102q113 0 214 42.5t175.5 117t118 181t43.5 229.5q0 122 -43.5 226t-118 174 t-175.5 109.5t-214 39.5t-214 -39.5t-176 -109.5t-119 -174t-44 -226q0 -123 44 -229.5t118.5 -181t176 -117t214.5 -42.5zM1010 332q-29 -20 -89.5 -39t-119.5 -19q-168 0 -277.5 105.5t-109.5 277.5q0 174 106.5 276.5t286.5 102.5q77 0 207 -18l20 -209h-14 q-94 76 -232 76q-86 0 -146 -54.5t-60 -164.5q0 -109 55 -179.5t174 -70.5q117 0 205 57h14z" />
<glyph unicode="&#xaa;" horiz-adv-x="770" d="M350 872q60 0 133 56l2 82q-60 37 -120 37q-51 0 -81 -23t-30 -68q0 -36 26 -60t70 -24zM479 762l2 67q-113 -81 -198 -81q-98 0 -154.5 57.5t-56.5 144.5q0 64 27.5 109.5t75.5 69.5t102 34.5t118 10.5q17 0 94 -5v11q1 43 -9.5 72t-32.5 43.5t-46.5 20t-56.5 5.5 q-87 0 -221 -61h-10l26 200q157 19 242 19q131 0 205.5 -70t77.5 -190l14 -457h-199zM688 475h-602v152h602v-152z" />
<glyph unicode="&#xab;" horiz-adv-x="1462" d="M1149 74l-494 434v8l496 434h209l-397 -438l397 -438h-211zM596 74l-494 434v8l496 434h209l-397 -438l397 -438h-211z" />
<glyph unicode="&#xac;" horiz-adv-x="1128" d="M961 123l-160 20v322h-674l20 160h814v-502z" />
<glyph unicode="&#xad;" horiz-adv-x="874" d="M711 479h-568l21 174h567z" />
<glyph unicode="&#xae;" horiz-adv-x="1552" d="M776 188q-190 0 -346 89t-247 248.5t-91 357.5q0 196 92.5 350.5t248 237.5t343.5 83t343.5 -83t248 -237.5t92.5 -350.5q0 -198 -91 -357.5t-247 -248.5t-346 -89zM776 311q113 0 214 42.5t175.5 117t118 181t43.5 229.5q0 122 -43.5 226t-118 174t-175.5 109.5 t-214 39.5t-214 -39.5t-176 -109.5t-119 -174t-44 -226q0 -123 44 -229.5t118.5 -181t176 -117t214.5 -42.5zM686 901l25 -389h-205l26 389l-26 352h270q127 0 192.5 -52.5t65.5 -141.5q0 -132 -149 -185l219 -348v-14h-213l-143 338v41q62 11 91 39t29 84q0 47 -39.5 73.5 t-91.5 26.5h-37z" />
<glyph unicode="&#xaf;" d="M209 1221v168h608v-168h-608z" />
<glyph unicode="&#xb0;" horiz-adv-x="892" d="M446 1556q163 0 248.5 -90.5t85.5 -230.5q0 -66 -20.5 -126t-60 -109.5t-105 -79t-148.5 -29.5t-148.5 29.5t-104.5 79t-59.5 109.5t-20.5 126q0 140 85 230.5t248 90.5zM446 1020q42 0 73.5 17.5t49 47.5t25.5 64t8 72q0 74 -38 124t-118 50q-79 0 -116 -50t-37 -124 q0 -83 36.5 -142t116.5 -59z" />
<glyph unicode="&#xb1;" horiz-adv-x="1126" d="M965 530h-316v-264l-172 -20v284h-336l21 172h315v265l172 20v-285h336zM965 0h-824l21 166h823z" />
<glyph unicode="&#xb2;" horiz-adv-x="710" d="M31 690v10l268 369q64 88 87.5 134.5t23.5 90.5q0 52 -33.5 79.5t-87.5 27.5q-82 0 -170 -74h-13l21 180q30 16 84 27.5t102 11.5q128 0 197.5 -65t69.5 -160q0 -81 -36 -151.5t-124 -174.5l-166 -194l360 82h15l-27 -193h-571z" />
<glyph unicode="&#xb3;" horiz-adv-x="704" d="M309 680q-98 0 -198 41l-23 176h12q57 -32 87.5 -47.5t70 -28t74.5 -12.5q59 0 95 37t36 100q0 61 -47 96t-121 35q-53 0 -86 -10v53l149 287l-264 -43h-12l22 172h519v-12l-234 -320q244 -39 244 -252q0 -47 -16.5 -92t-51.5 -87t-101.5 -67.5t-154.5 -25.5z" />
<glyph unicode="&#xb4;" d="M455 1556h254v-4l-258 -393h-136z" />
<glyph unicode="&#xb5;" horiz-adv-x="1150" d="M440 -20q-44 0 -82 12l11 -504h-240l41 989l-4 279l-43 264v4h250l-13 -602q-3 -132 45.5 -185t143.5 -53q115 0 237 84l-20 756h229l-24 -756l37 -264v-4h-213l-4 160l-48 -41q-165 -139 -303 -139z" />
<glyph unicode="&#xb6;" horiz-adv-x="1175" d="M1022 -176h-176v1712h176v-1712zM707 -176h-177v772q-130 0 -235.5 54.5t-169.5 163t-64 251.5q0 216 134.5 343.5t334.5 127.5h177v-1712z" />
<glyph unicode="&#xb7;" horiz-adv-x="575" d="M287 430q-54 0 -91.5 34.5t-37.5 90.5q0 61 37 95t92 34q56 0 93.5 -34t37.5 -95q0 -56 -38 -90.5t-93 -34.5z" />
<glyph unicode="&#xb8;" d="M594 -268q0 46 -33.5 76t-128.5 83v150h162v-90q182 -78 182 -232q0 -104 -77.5 -175.5t-198.5 -71.5q-69 0 -133 25.5t-99 60.5l-20 135h4q121 -76 207 -76q65 0 100 31.5t35 83.5z" />
<glyph unicode="&#xb9;" horiz-adv-x="503" d="M162 690l49 658l-160 -62v78l199 172h96l25 -846h-209z" />
<glyph unicode="&#xba;" horiz-adv-x="831" d="M416 1479q164 0 259 -102.5t95 -254.5q0 -161 -94 -267.5t-260 -106.5t-260.5 107t-94.5 267q0 152 95 254.5t260 102.5zM416 883q84 0 127 66t43 171q0 79 -45 133t-125 54t-125 -54t-45 -133q0 -104 43 -170.5t127 -66.5zM739 475h-647v152h647v-152z" />
<glyph unicode="&#xbb;" horiz-adv-x="1462" d="M877 950l483 -434v-8l-486 -434h-219l398 438l-398 438h222zM324 950l483 -434v-8l-485 -434h-220l398 438l-398 438h222z" />
<glyph unicode="&#xbc;" horiz-adv-x="1597" d="M162 690l49 658l-160 -62v78l199 172h96l25 -846h-209zM279 0h-207v4l1226 1532h207v-4zM1546 227h-213l17 -225h-191l17 225h-418v64l567 567h39l-35 -500h217v-131zM1178 358l-11 172l-172 -172h183z" />
<glyph unicode="&#xbd;" horiz-adv-x="1759" d="M162 690l49 658l-160 -62v78l199 172h96l25 -846h-209zM279 0h-207v4l1226 1532h207v-4zM1079 0v10l269 369q64 87 87 134t23 91q0 52 -33.5 79.5t-87.5 27.5q-82 0 -170 -74h-12l21 180q30 16 84 27.5t102 11.5q128 0 197 -64.5t69 -160.5q0 -81 -36 -151.5t-124 -174.5 l-165 -194l360 82h14l-26 -193h-572z" />
<glyph unicode="&#xbe;" horiz-adv-x="1732" d="M414 0h-207v4l1227 1532h206v-4zM309 682q-98 0 -198 41l-23 176h12q57 -32 87.5 -47.5t70 -28t74.5 -12.5q59 0 95 37t36 100q0 61 -47 96t-121 35q-53 0 -86 -10v53l149 287l-264 -43h-12l22 172h519v-12l-234 -320q244 -39 244 -252q0 -47 -16.5 -92t-51.5 -87 t-101.5 -67.5t-154.5 -25.5zM1681 227h-213l17 -225h-191l17 225h-418v64l567 567h39l-35 -500h217v-131zM1313 358l-10 172l-173 -172h183z" />
<glyph unicode="&#xbf;" horiz-adv-x="1046" d="M610 1044q54 0 91.5 -34t37.5 -90q0 -61 -37 -95t-92 -34q-56 0 -93.5 34t-37.5 95q0 56 38 90t93 34zM713 403q-21 -17 -64.5 -51t-63 -49.5t-55.5 -45t-52.5 -45.5t-43.5 -43.5t-39.5 -46.5t-29.5 -46.5t-24.5 -51.5t-13 -53t-5.5 -59q0 -111 78.5 -185.5t207.5 -74.5 q88 0 164 35t170 108h2l-26 -264q-148 -63 -340 -63q-124 0 -226 47.5t-165.5 143t-63.5 222.5q0 103 39 195t118.5 176.5t182 159t246.5 157.5h4v-166z" />
<glyph unicode="&#xc0;" horiz-adv-x="1447" d="M432 1909v4h260l139 -275h-172zM967 584l-246 667l-240 -667h486zM1184 0l-166 446h-586l-160 -446h-262v4l699 1583h71l658 -1583v-4h-254z" />
<glyph unicode="&#xc1;" horiz-adv-x="1447" d="M809 1913h260v-4l-227 -271h-172zM967 584l-246 667l-240 -667h486zM1184 0l-166 446h-586l-160 -446h-262v4l699 1583h71l658 -1583v-4h-254z" />
<glyph unicode="&#xc2;" horiz-adv-x="1447" d="M567 1638h-190l303 295h131l303 -295h-190l-179 125zM967 584l-246 667l-240 -667h486zM1184 0l-166 446h-586l-160 -446h-262v4l699 1583h71l658 -1583v-4h-254z" />
<glyph unicode="&#xc3;" horiz-adv-x="1447" d="M496 1638h-101q1 39 5.5 75t18.5 80.5t36.5 76.5t63 54t93.5 22q44 0 80.5 -14.5t62 -35.5t49 -42t52 -35.5t59.5 -14.5q80 0 86 142h99q1 -36 -2.5 -72.5t-16.5 -80.5t-33.5 -77t-59 -55.5t-89.5 -22.5q-46 0 -86.5 14.5t-68.5 35.5t-53 42t-51.5 35.5t-51.5 14.5 q-41 0 -62.5 -33.5t-29.5 -108.5zM967 584l-246 667l-240 -667h486zM1184 0l-166 446h-586l-160 -446h-262v4l699 1583h71l658 -1583v-4h-254z" />
<glyph unicode="&#xc4;" horiz-adv-x="1447" d="M502 1903q56 0 92.5 -31.5t36.5 -85.5q0 -57 -36.5 -91t-92.5 -34q-53 0 -90 34t-37 91q0 54 37 85.5t90 31.5zM985 1903q56 0 92.5 -31.5t36.5 -85.5q0 -57 -36.5 -91t-92.5 -34q-53 0 -90 34t-37 91q0 54 37 85.5t90 31.5zM967 584l-246 667l-240 -667h486zM1184 0 l-166 446h-586l-160 -446h-262v4l699 1583h71l658 -1583v-4h-254z" />
<glyph unicode="&#xc5;" horiz-adv-x="1447" d="M739 1624q-115 0 -181 62.5t-66 150.5q0 96 70.5 153.5t176.5 57.5t178 -57.5t72 -153.5q0 -88 -68 -150.5t-182 -62.5zM739 1722q55 0 89 30.5t34 74.5q0 51 -34.5 80.5t-88.5 29.5q-53 0 -88 -29.5t-35 -80.5q0 -44 34.5 -74.5t88.5 -30.5zM967 584l-246 667l-240 -667 h486zM1184 0l-166 446h-586l-160 -446h-262v4l699 1583h71l658 -1583v-4h-254z" />
<glyph unicode="&#xc6;" horiz-adv-x="1945" d="M1004 807l-19 469l-379 -692h389zM975 0l16 446h-465l-237 -446h-279v4l965 1532h797l40 -213h-4l-587 86l-25 -537l541 19l-21 -191l-520 58l27 -637l606 115h4l-43 -236h-815z" />
<glyph unicode="&#xc7;" horiz-adv-x="1529" d="M862 -549q-69 0 -132.5 25.5t-98.5 60.5l-21 135h4q120 -75 207 -75q65 0 100 31t35 83q0 46 -33.5 77t-127.5 83v117q-144 20 -264.5 82.5t-209.5 161t-138.5 237.5t-49.5 305q0 365 218 573.5t591 208.5q223 0 444 -71l41 -291h-4q-113 80 -235 120t-289 40 q-72 0 -144.5 -17t-147 -58.5t-131 -102.5t-92.5 -158t-36 -217q0 -295 153.5 -471t432.5 -176q232 0 475 172h4l-41 -236q-61 -37 -178 -71.5t-238 -38.5v-50q183 -78 183 -231q0 -104 -78 -176t-199 -72z" />
<glyph unicode="&#xc8;" horiz-adv-x="1165" d="M283 1950v4h260l139 -275h-172zM195 0l30 807l-30 729h796l41 -213h-4l-592 86l-22 -537l542 19l-20 -191l-522 60l24 -639l611 115h4l-43 -236h-815z" />
<glyph unicode="&#xc9;" horiz-adv-x="1165" d="M659 1954h261v-4l-228 -271h-172zM195 0l30 807l-30 729h796l41 -213h-4l-592 86l-22 -537l542 19l-20 -191l-522 60l24 -639l611 115h4l-43 -236h-815z" />
<glyph unicode="&#xca;" horiz-adv-x="1165" d="M418 1679h-191l303 295h132l303 -295h-191l-178 125zM195 0l30 807l-30 729h796l41 -213h-4l-592 86l-22 -537l542 19l-20 -191l-522 60l24 -639l611 115h4l-43 -236h-815z" />
<glyph unicode="&#xcb;" horiz-adv-x="1165" d="M352 1944q56 0 92.5 -31.5t36.5 -85.5q0 -57 -36.5 -91t-92.5 -34q-53 0 -90 34t-37 91q0 54 37 85.5t90 31.5zM836 1944q56 0 92.5 -31.5t36.5 -85.5q0 -57 -36.5 -91t-92.5 -34q-53 0 -90 34t-37 91q0 54 37 85.5t90 31.5zM195 0l30 807l-30 729h796l41 -213h-4 l-592 86l-22 -537l542 19l-20 -191l-522 60l24 -639l611 115h4l-43 -236h-815z" />
<glyph unicode="&#xcc;" horiz-adv-x="636" d="M6 1950v4h260l140 -275h-173zM195 0l30 807l-30 729h247l-30 -729l30 -807h-247z" />
<glyph unicode="&#xcd;" horiz-adv-x="636" d="M383 1954h260v-4l-227 -271h-172zM195 0l30 807l-30 729h247l-30 -729l30 -807h-247z" />
<glyph unicode="&#xce;" horiz-adv-x="636" d="M141 1679h-190l303 295h131l303 -295h-190l-179 125zM195 0l30 807l-30 729h247l-30 -729l30 -807h-247z" />
<glyph unicode="&#xcf;" horiz-adv-x="636" d="M76 1944q56 0 92.5 -31.5t36.5 -85.5q0 -57 -36.5 -91t-92.5 -34q-53 0 -90 34t-37 91q0 54 37 85.5t90 31.5zM559 1944q56 0 92.5 -31.5t36.5 -85.5q0 -57 -36.5 -91t-92.5 -34q-53 0 -90 34t-37 91q0 54 37 85.5t90 31.5zM195 0l30 807l-30 729h247l-30 -729l30 -807 h-247z" />
<glyph unicode="&#xd0;" horiz-adv-x="1587" d="M842 705h-426l20 -533h238q254 0 408.5 167t154.5 468q-1 126 -41 229t-110.5 172t-166.5 106.5t-208 37.5h-277l-20 -514l428 28v-161zM195 0l26 705h-201v161l203 -24l-28 694h514q158 0 293 -47.5t236 -138t158.5 -232.5t57.5 -321q0 -226 -95.5 -407t-274 -285.5 t-410.5 -104.5h-479z" />
<glyph unicode="&#xd1;" horiz-adv-x="1619" d="M563 1679h-100q1 39 5.5 75t18.5 80.5t36.5 76.5t63 54t93.5 22q44 0 80.5 -14.5t62 -35.5t49 -42t52 -35.5t59.5 -14.5q80 0 86 142h98q1 -36 -2.5 -72.5t-16 -80.5t-33.5 -77t-59 -55.5t-89 -22.5q-46 0 -86.5 14.5t-69 35.5t-53.5 42t-51.5 35.5t-51.5 14.5 q-41 0 -62.5 -33.5t-29.5 -108.5zM1313 0l-953 1141l52 -1141h-238l53 1536h64l958 -1153l-41 1153h238l-70 -1536h-63z" />
<glyph unicode="&#xd2;" horiz-adv-x="1751" d="M565 1950v4h260l140 -275h-172zM877 -20q-220 0 -391 106t-262 286.5t-91 403.5q0 176 57 323.5t156.5 247t236 154.5t294.5 55q157 0 293 -55t235 -154.5t156 -247t57 -323.5q0 -218 -90.5 -398.5t-261 -289t-389.5 -108.5zM877 156q110 0 206.5 44t167.5 123.5 t111.5 198t40.5 260.5q0 258 -145 415t-381 157q-235 0 -381 -157.5t-146 -412.5q0 -143 40.5 -262t111.5 -198.5t167.5 -123.5t207.5 -44z" />
<glyph unicode="&#xd3;" horiz-adv-x="1751" d="M942 1954h260v-4l-227 -271h-172zM877 -20q-220 0 -391 106t-262 286.5t-91 403.5q0 176 57 323.5t156.5 247t236 154.5t294.5 55q157 0 293 -55t235 -154.5t156 -247t57 -323.5q0 -218 -90.5 -398.5t-261 -289t-389.5 -108.5zM877 156q110 0 206.5 44t167.5 123.5 t111.5 198t40.5 260.5q0 258 -145 415t-381 157q-235 0 -381 -157.5t-146 -412.5q0 -143 40.5 -262t111.5 -198.5t167.5 -123.5t207.5 -44z" />
<glyph unicode="&#xd4;" horiz-adv-x="1751" d="M700 1679h-190l303 295h131l303 -295h-190l-178 125zM877 -20q-220 0 -391 106t-262 286.5t-91 403.5q0 176 57 323.5t156.5 247t236 154.5t294.5 55q157 0 293 -55t235 -154.5t156 -247t57 -323.5q0 -218 -90.5 -398.5t-261 -289t-389.5 -108.5zM877 156q110 0 206.5 44 t167.5 123.5t111.5 198t40.5 260.5q0 258 -145 415t-381 157q-235 0 -381 -157.5t-146 -412.5q0 -143 40.5 -262t111.5 -198.5t167.5 -123.5t207.5 -44z" />
<glyph unicode="&#xd5;" horiz-adv-x="1751" d="M629 1679h-101q1 39 5.5 75t18.5 80.5t36.5 76.5t63 54t93.5 22q44 0 80.5 -14.5t62 -35.5t49.5 -42t52.5 -35.5t59.5 -14.5q80 0 86 142h98q1 -36 -2.5 -72.5t-16.5 -80.5t-33.5 -77t-59 -55.5t-89.5 -22.5q-46 0 -86.5 14.5t-68.5 35.5t-53 42t-51.5 35.5t-51.5 14.5 q-41 0 -62.5 -33.5t-29.5 -108.5zM877 -20q-220 0 -391 106t-262 286.5t-91 403.5q0 176 57 323.5t156.5 247t236 154.5t294.5 55q157 0 293 -55t235 -154.5t156 -247t57 -323.5q0 -218 -90.5 -398.5t-261 -289t-389.5 -108.5zM877 156q110 0 206.5 44t167.5 123.5 t111.5 198t40.5 260.5q0 258 -145 415t-381 157q-235 0 -381 -157.5t-146 -412.5q0 -143 40.5 -262t111.5 -198.5t167.5 -123.5t207.5 -44z" />
<glyph unicode="&#xd6;" horiz-adv-x="1751" d="M635 1944q56 0 92.5 -31.5t36.5 -85.5q0 -57 -36.5 -91t-92.5 -34q-53 0 -90 34t-37 91q0 54 37 85.5t90 31.5zM1118 1944q56 0 92.5 -31.5t36.5 -85.5q0 -57 -36.5 -91t-92.5 -34q-53 0 -90 34t-37 91q0 54 37 85.5t90 31.5zM877 -20q-220 0 -391 106t-262 286.5 t-91 403.5q0 176 57 323.5t156.5 247t236 154.5t294.5 55q157 0 293 -55t235 -154.5t156 -247t57 -323.5q0 -218 -90.5 -398.5t-261 -289t-389.5 -108.5zM877 156q110 0 206.5 44t167.5 123.5t111.5 198t40.5 260.5q0 258 -145 415t-381 157q-235 0 -381 -157.5t-146 -412.5 q0 -143 40.5 -262t111.5 -198.5t167.5 -123.5t207.5 -44z" />
<glyph unicode="&#xd7;" horiz-adv-x="1126" d="M944 854l-260 -260l260 -260l-106 -135l-275 274l-274 -274l-107 135l260 260l-260 260l107 135l274 -274l275 274z" />
<glyph unicode="&#xd8;" horiz-adv-x="1751" d="M877 -20q-248 0 -433 133l-94 -113h-211l185 223q-92 108 -141.5 250t-49.5 303q0 176 57 323.5t156.5 247t236 154.5t294.5 55q251 0 438 -133l94 113h211l-184 -223q182 -210 182 -537q0 -218 -90.5 -398.5t-261 -289t-389.5 -108.5zM350 784q0 -238 107 -399l727 879 q-133 90 -307 90q-235 0 -381 -157.5t-146 -412.5zM877 156q110 0 206.5 44t167.5 123.5t111.5 198t40.5 260.5q0 220 -105 365l-731 -885q130 -106 310 -106z" />
<glyph unicode="&#xd9;" horiz-adv-x="1597" d="M489 1950v4h261l139 -275h-172zM801 156q187 0 294 126t107 369l-37 885h248l-24 -885q0 -315 -153 -493t-435 -178q-281 0 -436.5 178.5t-155.5 492.5l-25 885h248l-37 -885q0 -242 110.5 -368.5t295.5 -126.5z" />
<glyph unicode="&#xda;" horiz-adv-x="1597" d="M866 1954h260v-4l-227 -271h-172zM801 156q187 0 294 126t107 369l-37 885h248l-24 -885q0 -315 -153 -493t-435 -178q-281 0 -436.5 178.5t-155.5 492.5l-25 885h248l-37 -885q0 -242 110.5 -368.5t295.5 -126.5z" />
<glyph unicode="&#xdb;" horiz-adv-x="1597" d="M625 1679h-191l303 295h131l303 -295h-190l-178 125zM801 156q187 0 294 126t107 369l-37 885h248l-24 -885q0 -315 -153 -493t-435 -178q-281 0 -436.5 178.5t-155.5 492.5l-25 885h248l-37 -885q0 -242 110.5 -368.5t295.5 -126.5z" />
<glyph unicode="&#xdc;" horiz-adv-x="1597" d="M559 1944q56 0 92.5 -31.5t36.5 -85.5q0 -57 -36.5 -91t-92.5 -34q-53 0 -90 34t-37 91q0 54 37 85.5t90 31.5zM1042 1944q56 0 92.5 -31.5t36.5 -85.5q0 -57 -36.5 -91t-92.5 -34q-53 0 -90 34t-37 91q0 54 37 85.5t90 31.5zM801 156q187 0 294 126t107 369l-37 885h248 l-24 -885q0 -315 -153 -493t-435 -178q-281 0 -436.5 178.5t-155.5 492.5l-25 885h248l-37 -885q0 -242 110.5 -368.5t295.5 -126.5z" />
<glyph unicode="&#xdd;" horiz-adv-x="1316" d="M727 1954h260v-4l-227 -271h-172zM793 0h-261l31 692l-543 840v4h279l381 -713l362 713h254v-4l-536 -836z" />
<glyph unicode="&#xde;" horiz-adv-x="1214" d="M420 807l26 -807h-251l30 807l-30 729h251l-10 -283h170q243 0 379.5 -115.5t136.5 -303.5q0 -224 -133 -357.5t-409 -142.5v127q151 10 241 88t90 229q0 142 -85 217.5t-275 75.5h-121z" />
<glyph unicode="&#xdf;" horiz-adv-x="1292" d="M840 -20q-130 0 -258 71l-35 228h4q60 -52 136.5 -90.5t150.5 -38.5q79 0 119 51t40 139q0 86 -44 161t-136 167l-205 204l246 535h-487l-19 -539l25 -868h-223l26 868l-26 709h1024v-4l-359 -651l148 -146q227 -223 227 -424q0 -164 -99.5 -268t-254.5 -104z" />
<glyph unicode="&#xe0;" horiz-adv-x="1050" d="M178 1552v4h254l139 -397h-135zM481 129q87 0 203 90l6 178q-74 41 -172 41q-94 0 -148.5 -41t-54.5 -114q0 -69 45.5 -111.5t120.5 -42.5zM678 0l2 96q-155 -116 -262 -116q-143 0 -224 82t-81 206q0 75 28 132t73 91.5t108.5 56.5t127.5 30t138 8q28 0 106 -4l2 53 q2 72 -12.5 120t-45.5 71.5t-65.5 32.5t-83.5 9q-136 0 -327 -86h-4l39 240q209 22 321 22q176 0 268.5 -99.5t98.5 -276.5l22 -668h-229z" />
<glyph unicode="&#xe1;" horiz-adv-x="1050" d="M549 1556h254v-4l-258 -393h-135zM481 129q87 0 203 90l6 178q-74 41 -172 41q-94 0 -148.5 -41t-54.5 -114q0 -69 45.5 -111.5t120.5 -42.5zM678 0l2 96q-155 -116 -262 -116q-143 0 -224 82t-81 206q0 75 28 132t73 91.5t108.5 56.5t127.5 30t138 8q28 0 106 -4l2 53 q2 72 -12.5 120t-45.5 71.5t-65.5 32.5t-83.5 9q-136 0 -327 -86h-4l39 240q209 22 321 22q176 0 268.5 -99.5t98.5 -276.5l22 -668h-229z" />
<glyph unicode="&#xe2;" horiz-adv-x="1050" d="M279 1159h-125l262 397h131l262 -397h-125l-203 197zM481 129q87 0 203 90l6 178q-74 41 -172 41q-94 0 -148.5 -41t-54.5 -114q0 -69 45.5 -111.5t120.5 -42.5zM678 0l2 96q-155 -116 -262 -116q-143 0 -224 82t-81 206q0 75 28 132t73 91.5t108.5 56.5t127.5 30t138 8 q28 0 106 -4l2 53q2 72 -12.5 120t-45.5 71.5t-65.5 32.5t-83.5 9q-136 0 -327 -86h-4l39 240q209 22 321 22q176 0 268.5 -99.5t98.5 -276.5l22 -668h-229z" />
<glyph unicode="&#xe3;" horiz-adv-x="1050" d="M236 1208h-93q1 33 4 64t10.5 69t22 69.5t35.5 58.5t53.5 42t73.5 15q48 0 87.5 -19t65.5 -46t49.5 -53.5t52.5 -45.5t62 -19q83 0 91 152h90q1 -49 -5.5 -97t-24 -101t-57 -86t-96.5 -33q-51 0 -94 18.5t-72 45.5t-54.5 54t-51.5 45.5t-53 18.5q-43 0 -65.5 -36 t-30.5 -116zM481 129q87 0 203 90l6 178q-74 41 -172 41q-94 0 -148.5 -41t-54.5 -114q0 -69 45.5 -111.5t120.5 -42.5zM678 0l2 96q-155 -116 -262 -116q-143 0 -224 82t-81 206q0 75 28 132t73 91.5t108.5 56.5t127.5 30t138 8q28 0 106 -4l2 53q2 72 -12.5 120 t-45.5 71.5t-65.5 32.5t-83.5 9q-136 0 -327 -86h-4l39 240q209 22 321 22q176 0 268.5 -99.5t98.5 -276.5l22 -668h-229z" />
<glyph unicode="&#xe4;" horiz-adv-x="1050" d="M252 1473q56 0 92.5 -31.5t36.5 -85.5q0 -57 -36.5 -91t-92.5 -34q-53 0 -90 34t-37 91q0 54 37 85.5t90 31.5zM698 1473q56 0 92.5 -31.5t36.5 -85.5q0 -57 -36.5 -91t-92.5 -34q-53 0 -90 34t-37 91q0 54 37 85.5t90 31.5zM481 129q87 0 203 90l6 178q-74 41 -172 41 q-94 0 -148.5 -41t-54.5 -114q0 -69 45.5 -111.5t120.5 -42.5zM678 0l2 96q-155 -116 -262 -116q-143 0 -224 82t-81 206q0 75 28 132t73 91.5t108.5 56.5t127.5 30t138 8q28 0 106 -4l2 53q2 72 -12.5 120t-45.5 71.5t-65.5 32.5t-83.5 9q-136 0 -327 -86h-4l39 240 q209 22 321 22q176 0 268.5 -99.5t98.5 -276.5l22 -668h-229z" />
<glyph unicode="&#xe5;" horiz-adv-x="1050" d="M481 1174q-115 0 -181.5 62t-66.5 150q0 96 71 153.5t177 57.5t178 -57.5t72 -153.5q0 -87 -68 -149.5t-182 -62.5zM481 1272q56 0 89.5 30t33.5 74q0 51 -34.5 81t-88.5 30q-53 0 -88 -30t-35 -81q0 -44 34.5 -74t88.5 -30zM481 129q87 0 203 90l6 178q-74 41 -172 41 q-94 0 -148.5 -41t-54.5 -114q0 -69 45.5 -111.5t120.5 -42.5zM678 0l2 96q-155 -116 -262 -116q-143 0 -224 82t-81 206q0 75 28 132t73 91.5t108.5 56.5t127.5 30t138 8q28 0 106 -4l2 53q2 72 -12.5 120t-45.5 71.5t-65.5 32.5t-83.5 9q-136 0 -327 -86h-4l39 240 q209 22 321 22q176 0 268.5 -99.5t98.5 -276.5l22 -668h-229z" />
<glyph unicode="&#xe6;" horiz-adv-x="1665" d="M1128 860q-45 0 -86 -17t-76 -51.5t-56 -96t-21 -142.5l473 61q9 109 -50.5 177.5t-183.5 68.5zM1161 -20q-232 0 -360 170q-92 -91 -181.5 -130.5t-201.5 -39.5q-143 0 -224 82t-81 206q0 75 28 132t73 91.5t108.5 56.5t127.5 30t138 8q28 0 106 -4q4 63 2.5 108.5 t-17.5 77.5t-33.5 51.5t-45.5 30.5t-53.5 14.5t-57.5 3.5q-136 0 -327 -86h-4l39 240q209 22 321 22q205 0 297 -137q125 137 318 137q222 0 332 -156.5t81 -436.5h-653q8 -151 88.5 -233.5t235.5 -82.5q78 0 145.5 24.5t140.5 67.5h4l-20 -143q-110 -104 -326 -104z M481 129q86 0 205 92l4 176q-74 41 -172 41q-94 0 -148.5 -41t-54.5 -114q0 -69 45.5 -111.5t120.5 -42.5z" />
<glyph unicode="&#xe7;" horiz-adv-x="972" d="M522 -549q-69 0 -132.5 25.5t-98.5 60.5l-21 135h4q120 -75 207 -75q65 0 100 31t35 83q0 46 -33.5 77t-127.5 83v127q-161 44 -257 187t-96 339q0 126 40.5 227t110.5 164t158.5 96t188.5 33q155 0 248 -49l41 -239h-4q-137 102 -291 102q-126 0 -207.5 -85t-81.5 -253 q0 -189 83.5 -287t225.5 -98q74 0 138 25t135 69h4l-21 -143q-38 -38 -107.5 -69t-146.5 -37v-50q183 -78 183 -231q0 -104 -78 -176t-199 -72z" />
<glyph unicode="&#xe8;" horiz-adv-x="1083" d="M246 1552v4h254l139 -397h-135zM905 84q-110 -104 -325 -104q-117 0 -210.5 45t-150.5 121t-87 170t-30 198q0 129 36.5 231.5t99.5 167t143 98t170 33.5q222 0 332.5 -156.5t81.5 -436.5h-658q15 -149 91.5 -232.5t236.5 -83.5q130 0 287 92h4zM307 553l473 61 q9 109 -50 177.5t-183 68.5q-45 0 -86 -17t-76.5 -51.5t-56.5 -96t-21 -142.5z" />
<glyph unicode="&#xe9;" horiz-adv-x="1083" d="M616 1556h254v-4l-258 -393h-135zM905 84q-110 -104 -325 -104q-117 0 -210.5 45t-150.5 121t-87 170t-30 198q0 129 36.5 231.5t99.5 167t143 98t170 33.5q222 0 332.5 -156.5t81.5 -436.5h-658q15 -149 91.5 -232.5t236.5 -83.5q130 0 287 92h4zM307 553l473 61 q9 109 -50 177.5t-183 68.5q-45 0 -86 -17t-76.5 -51.5t-56.5 -96t-21 -142.5z" />
<glyph unicode="&#xea;" horiz-adv-x="1083" d="M334 1159h-125l262 397h131l262 -397h-125l-202 197zM905 84q-110 -104 -325 -104q-117 0 -210.5 45t-150.5 121t-87 170t-30 198q0 129 36.5 231.5t99.5 167t143 98t170 33.5q222 0 332.5 -156.5t81.5 -436.5h-658q15 -149 91.5 -232.5t236.5 -83.5q130 0 287 92h4z M307 553l473 61q9 109 -50 177.5t-183 68.5q-45 0 -86 -17t-76.5 -51.5t-56.5 -96t-21 -142.5z" />
<glyph unicode="&#xeb;" horiz-adv-x="1083" d="M319 1473q56 0 93 -31.5t37 -85.5q0 -57 -37 -91t-93 -34q-53 0 -89.5 34t-36.5 91q0 54 36.5 85.5t89.5 31.5zM766 1473q56 0 92.5 -31.5t36.5 -85.5q0 -57 -36.5 -91t-92.5 -34q-53 0 -90 34t-37 91q0 54 37 85.5t90 31.5zM905 84q-110 -104 -325 -104 q-117 0 -210.5 45t-150.5 121t-87 170t-30 198q0 129 36.5 231.5t99.5 167t143 98t170 33.5q222 0 332.5 -156.5t81.5 -436.5h-658q15 -149 91.5 -232.5t236.5 -83.5q130 0 287 92h4zM307 553l473 61q9 109 -50 177.5t-183 68.5q-45 0 -86 -17t-76.5 -51.5t-56.5 -96 t-21 -142.5z" />
<glyph unicode="&#xec;" horiz-adv-x="540" d="M-47 1552v4h254l139 -397h-135zM143 1024h213v-4l29 -1020h-229l24 756l-37 264v4z" />
<glyph unicode="&#xed;" horiz-adv-x="540" d="M324 1556h254v-4l-259 -393h-135zM143 1024h213v-4l29 -1020h-229l24 756l-37 264v4z" />
<glyph unicode="&#xee;" horiz-adv-x="540" d="M53 1159h-125l262 397h132l262 -397h-125l-203 197zM143 1024h213v-4l29 -1020h-229l24 756l-37 264v4z" />
<glyph unicode="&#xef;" horiz-adv-x="540" d="M27 1473q56 0 92.5 -31.5t36.5 -85.5q0 -57 -36.5 -91t-92.5 -34q-53 0 -90 34t-37 91q0 54 37 85.5t90 31.5zM473 1473q56 0 92.5 -31.5t36.5 -85.5q0 -57 -36.5 -91t-92.5 -34q-53 0 -90 34t-37 91q0 54 37 85.5t90 31.5zM143 1024h213v-4l29 -1020h-229l24 756 l-37 264v4z" />
<glyph unicode="&#xf0;" horiz-adv-x="1165" d="M582 135q135 0 205.5 108t70.5 281q0 141 -73.5 237.5t-202.5 96.5q-130 0 -203.5 -96t-73.5 -238q0 -172 71 -280.5t206 -108.5zM1061 528q0 -114 -32 -213t-91 -174t-151 -118t-205 -43q-150 0 -260.5 75.5t-165 198t-54.5 274.5q0 143 55 259t165.5 186.5t259.5 70.5 q67 0 133 -16q-62 98 -162 201l-209 -103l-149 74v21l241 116q-122 103 -233 179v20h211q110 -72 174 -123l200 96l150 -73v-21l-223 -108q197 -184 272.5 -371.5t75.5 -407.5h-2z" />
<glyph unicode="&#xf1;" horiz-adv-x="1173" d="M344 1208h-92q1 33 4 64t10.5 69t22 69.5t35.5 58.5t53.5 42t73.5 15q48 0 87.5 -19t65.5 -46t49.5 -53.5t52.5 -45.5t62 -19q82 0 90 152h90q1 -49 -5.5 -97t-23.5 -101t-56.5 -86t-96.5 -33q-51 0 -94.5 18.5t-72.5 45.5t-54 54t-51.5 45.5t-53.5 18.5q-43 0 -65.5 -36 t-30.5 -116zM592 840q-102 3 -227 -84l20 -756h-229l24 756l-37 264v4h213l4 -158l39 33q172 145 306 145q139 0 212.5 -99.5t79.5 -276.5l23 -668h-229l18 600q4 139 -53 190.5t-164 49.5z" />
<glyph unicode="&#xf2;" horiz-adv-x="1163" d="M279 1552v4h253l140 -397h-135zM582 1044q112 0 204 -41t151.5 -111.5t91.5 -164t32 -199.5q0 -114 -32 -213t-91 -174t-151 -118t-205 -43q-150 0 -260.5 75.5t-165 198t-54.5 274.5q0 143 55 259t165.5 186.5t259.5 70.5zM582 135q135 0 205.5 108t70.5 281 q0 141 -73.5 237.5t-202.5 96.5q-130 0 -203.5 -96t-73.5 -238q0 -172 71 -280.5t206 -108.5z" />
<glyph unicode="&#xf3;" horiz-adv-x="1163" d="M649 1556h254v-4l-258 -393h-135zM582 1044q112 0 204 -41t151.5 -111.5t91.5 -164t32 -199.5q0 -114 -32 -213t-91 -174t-151 -118t-205 -43q-150 0 -260.5 75.5t-165 198t-54.5 274.5q0 143 55 259t165.5 186.5t259.5 70.5zM582 135q135 0 205.5 108t70.5 281 q0 141 -73.5 237.5t-202.5 96.5q-130 0 -203.5 -96t-73.5 -238q0 -172 71 -280.5t206 -108.5z" />
<glyph unicode="&#xf4;" horiz-adv-x="1163" d="M379 1159h-125l262 397h131l262 -397h-125l-202 197zM582 1044q112 0 204 -41t151.5 -111.5t91.5 -164t32 -199.5q0 -114 -32 -213t-91 -174t-151 -118t-205 -43q-150 0 -260.5 75.5t-165 198t-54.5 274.5q0 143 55 259t165.5 186.5t259.5 70.5zM582 135q135 0 205.5 108 t70.5 281q0 141 -73.5 237.5t-202.5 96.5q-130 0 -203.5 -96t-73.5 -238q0 -172 71 -280.5t206 -108.5z" />
<glyph unicode="&#xf5;" horiz-adv-x="1163" d="M336 1208h-92q1 53 8.5 100t27 100.5t61 85.5t101.5 32q48 0 87.5 -19t65.5 -46t50 -53.5t53 -45.5t62 -19q82 0 90 152h90q1 -49 -5.5 -97t-23.5 -101t-56.5 -86t-96.5 -33q-51 0 -94.5 18.5t-72.5 45.5t-54 54t-51.5 45.5t-53.5 18.5q-43 0 -65.5 -36t-30.5 -116z M582 1044q112 0 204 -41t151.5 -111.5t91.5 -164t32 -199.5q0 -114 -32 -213t-91 -174t-151 -118t-205 -43q-150 0 -260.5 75.5t-165 198t-54.5 274.5q0 143 55 259t165.5 186.5t259.5 70.5zM582 135q135 0 205.5 108t70.5 281q0 141 -73.5 237.5t-202.5 96.5 q-130 0 -203.5 -96t-73.5 -238q0 -172 71 -280.5t206 -108.5z" />
<glyph unicode="&#xf6;" horiz-adv-x="1163" d="M352 1473q56 0 92.5 -31.5t36.5 -85.5q0 -57 -36.5 -91t-92.5 -34q-53 0 -90 34t-37 91q0 54 37 85.5t90 31.5zM799 1473q56 0 92.5 -31.5t36.5 -85.5q0 -57 -36.5 -91t-92.5 -34q-53 0 -90 34t-37 91q0 54 37 85.5t90 31.5zM582 1044q112 0 204 -41t151.5 -111.5 t91.5 -164t32 -199.5q0 -114 -32 -213t-91 -174t-151 -118t-205 -43q-150 0 -260.5 75.5t-165 198t-54.5 274.5q0 143 55 259t165.5 186.5t259.5 70.5zM582 135q135 0 205.5 108t70.5 281q0 141 -73.5 237.5t-202.5 96.5q-130 0 -203.5 -96t-73.5 -238q0 -172 71 -280.5 t206 -108.5z" />
<glyph unicode="&#xf7;" horiz-adv-x="1126" d="M561 1001q50 0 82.5 -28t32.5 -82q0 -51 -33 -83t-82 -32q-46 0 -79 32t-33 83q0 54 32 82t80 28zM965 479h-824l21 172h823zM561 348q50 0 82.5 -28t32.5 -82q0 -51 -33 -83t-82 -32q-46 0 -79 32t-33 83q0 54 32 82t80 28z" />
<glyph unicode="&#xf8;" horiz-adv-x="1163" d="M582 -20q-161 0 -279 88l-59 -68h-181v4l142 166q-103 145 -103 358q0 143 55 259t165.5 186.5t259.5 70.5q171 0 295 -94l63 74h180v-4l-149 -174q90 -134 90 -318q0 -114 -32 -213t-91 -174t-151 -118t-205 -43zM305 524q0 -111 31 -202l412 479q-70 57 -166 57 q-130 0 -203.5 -96t-73.5 -238zM582 135q135 0 205.5 108t70.5 281q0 82 -29 158l-415 -483q67 -64 168 -64z" />
<glyph unicode="&#xf9;" horiz-adv-x="1150" d="M260 1552v4h254l139 -397h-135zM743 119q-165 -139 -303 -139q-128 0 -196.5 100.5t-71.5 273.5l-6 402l-43 264v4h250l-13 -602q-3 -132 45.5 -185t143.5 -53q115 0 237 84l-20 756h229l-24 -756l37 -264v-4h-213l-4 160z" />
<glyph unicode="&#xfa;" horiz-adv-x="1150" d="M631 1556h254v-4l-258 -393h-135zM743 119q-165 -139 -303 -139q-128 0 -196.5 100.5t-71.5 273.5l-6 402l-43 264v4h250l-13 -602q-3 -132 45.5 -185t143.5 -53q115 0 237 84l-20 756h229l-24 -756l37 -264v-4h-213l-4 160z" />
<glyph unicode="&#xfb;" horiz-adv-x="1150" d="M360 1159h-124l262 397h131l262 -397h-125l-203 197zM743 119q-165 -139 -303 -139q-128 0 -196.5 100.5t-71.5 273.5l-6 402l-43 264v4h250l-13 -602q-3 -132 45.5 -185t143.5 -53q115 0 237 84l-20 756h229l-24 -756l37 -264v-4h-213l-4 160z" />
<glyph unicode="&#xfc;" horiz-adv-x="1150" d="M334 1473q56 0 92.5 -31.5t36.5 -85.5q0 -57 -36.5 -91t-92.5 -34q-53 0 -90 34t-37 91q0 54 37 85.5t90 31.5zM780 1473q56 0 92.5 -31.5t36.5 -85.5q0 -57 -36.5 -91t-92.5 -34q-53 0 -90 34t-37 91q0 54 37 85.5t90 31.5zM743 119q-165 -139 -303 -139 q-128 0 -196.5 100.5t-71.5 273.5l-6 402l-43 264v4h250l-13 -602q-3 -132 45.5 -185t143.5 -53q115 0 237 84l-20 756h229l-24 -756l37 -264v-4h-213l-4 160z" />
<glyph unicode="&#xfd;" horiz-adv-x="1060" d="M592 1556h254v-4l-258 -393h-135zM338 -512h-264v4l370 528l-434 1000v4h248l287 -811l252 811h254v-4z" />
<glyph unicode="&#xfe;" horiz-adv-x="1146" d="M575 135q132 0 200.5 105.5t68.5 283.5q-3 151 -70.5 231.5t-193.5 80.5q-102 0 -232 -78l12 -543q90 -80 215 -80zM557 -20q-96 0 -192 26l10 -518h-223l26 1407l-33 682h224l-23 -705q43 37 73 60.5t75 53t90.5 44t89.5 14.5q95 0 168.5 -44.5t116 -118.5t64 -160.5 t21.5 -179.5q0 -49 -5.5 -97.5t-20 -105t-37.5 -106.5t-61.5 -97t-87.5 -80.5t-119.5 -54t-155.5 -20.5z" />
<glyph unicode="&#xff;" horiz-adv-x="1060" d="M295 1473q56 0 92.5 -31.5t36.5 -85.5q0 -57 -36.5 -91t-92.5 -34q-53 0 -90 34t-37 91q0 54 37 85.5t90 31.5zM741 1473q56 0 92.5 -31.5t36.5 -85.5q0 -57 -36.5 -91t-92.5 -34q-53 0 -90 34t-37 91q0 54 37 85.5t90 31.5zM338 -512h-264v4l370 528l-434 1000v4h248 l287 -811l252 811h254v-4z" />
<glyph unicode="&#x152;" horiz-adv-x="2050" d="M1108 807l-21 545h-213q-112 0 -208 -38t-166.5 -107.5t-110.5 -174t-41 -231.5q0 -304 151 -466.5t431 -162.5h155zM911 0q-189 0 -338 58.5t-245.5 164.5t-146.5 251.5t-50 322.5q0 179 57.5 321t159 232.5t236.5 138t293 47.5h999l41 -213h-4l-588 86l-25 -537l541 19 l-20 -191l-521 58l27 -637l606 115h4l-43 -236h-983z" />
<glyph unicode="&#x153;" horiz-adv-x="1839" d="M1335 -20q-247 0 -377 188q-134 -188 -376 -188q-150 0 -260.5 75.5t-165 198t-54.5 274.5q0 143 55 259t165.5 186.5t259.5 70.5q243 0 374 -178q62 87 154 132.5t197 45.5q222 0 332 -156.5t81 -436.5h-657q15 -149 91.5 -232.5t236.5 -83.5q78 0 145.5 24.5 t140.5 67.5h4l-20 -143q-110 -104 -326 -104zM1063 553l473 61q9 109 -50 177.5t-183 68.5q-45 0 -86 -17t-76.5 -51.5t-56.5 -96t-21 -142.5zM582 135q135 0 205.5 108t70.5 281q0 141 -73.5 237.5t-202.5 96.5q-130 0 -203.5 -96t-73.5 -238q0 -172 71 -280.5t206 -108.5z " />
<glyph unicode="&#x178;" horiz-adv-x="1316" d="M420 1944q56 0 92.5 -31.5t36.5 -85.5q0 -57 -36.5 -91t-92.5 -34q-53 0 -90 34t-37 91q0 54 37 85.5t90 31.5zM903 1944q56 0 92.5 -31.5t36.5 -85.5q0 -57 -36.5 -91t-92.5 -34q-53 0 -90 34t-37 91q0 54 37 85.5t90 31.5zM793 0h-261l31 692l-543 840v4h279l381 -713 l362 713h254v-4l-536 -836z" />
<glyph unicode="&#x2c6;" d="M309 1159h-125l262 397h132l262 -397h-125l-203 197z" />
<glyph unicode="&#x2dc;" d="M256 1208h-92q1 53 8.5 100t27 100.5t61 85.5t101.5 32q48 0 87.5 -19t65.5 -46t50 -53.5t53 -45.5t62 -19q82 0 90 152h90q1 -49 -5.5 -97t-23.5 -101t-56.5 -86t-96.5 -33q-51 0 -94.5 18.5t-72.5 45.5t-54 54t-51.5 45.5t-53.5 18.5q-43 0 -65.5 -36t-30.5 -116z" />
<glyph unicode="&#x2000;" />
<glyph unicode="&#x2001;" horiz-adv-x="2048" />
<glyph unicode="&#x2002;" />
<glyph unicode="&#x2003;" horiz-adv-x="2048" />
<glyph unicode="&#x2004;" horiz-adv-x="682" />
<glyph unicode="&#x2005;" horiz-adv-x="512" />
<glyph unicode="&#x2006;" horiz-adv-x="341" />
<glyph unicode="&#x2007;" horiz-adv-x="341" />
<glyph unicode="&#x2008;" horiz-adv-x="256" />
<glyph unicode="&#x2009;" horiz-adv-x="409" />
<glyph unicode="&#x200a;" horiz-adv-x="113" />
<glyph unicode="&#x2010;" horiz-adv-x="874" d="M711 479h-568l21 174h567z" />
<glyph unicode="&#x2011;" horiz-adv-x="874" d="M711 479h-568l21 174h567z" />
<glyph unicode="&#x2012;" horiz-adv-x="874" d="M711 479h-568l21 174h567z" />
<glyph unicode="&#x2013;" horiz-adv-x="1230" d="M1098 492h-985l20 192h985z" />
<glyph unicode="&#x2014;" horiz-adv-x="1824" d="M1692 492h-1579l20 192h1579z" />
<glyph unicode="&#x2018;" horiz-adv-x="485" d="M311 983h-250v4l213 549h129z" />
<glyph unicode="&#x2019;" horiz-adv-x="485" d="M174 1536h250v-4l-213 -549h-129z" />
<glyph unicode="&#x201a;" horiz-adv-x="557" d="M164 213h250v-4l-213 -549h-129z" />
<glyph unicode="&#x201c;" horiz-adv-x="915" d="M311 983h-250v4l213 549h129zM741 983h-249v4l213 549h129z" />
<glyph unicode="&#x201d;" horiz-adv-x="915" d="M604 1536h250v-4l-213 -549h-129zM174 1536h250v-4l-213 -549h-129z" />
<glyph unicode="&#x201e;" horiz-adv-x="974" d="M582 213h249v-4l-213 -549h-129zM164 213h250v-4l-213 -549h-129z" />
<glyph unicode="&#x2022;" horiz-adv-x="970" d="M485 295q-139 0 -226 86.5t-87 220.5q0 137 87 222t226 85q140 0 227 -85.5t87 -221.5q0 -134 -87.5 -220.5t-226.5 -86.5z" />
<glyph unicode="&#x2026;" horiz-adv-x="1517" d="M287 -20q-54 0 -91.5 34t-37.5 90q0 61 37 95t92 34q56 0 93.5 -34t37.5 -95q0 -56 -38 -90t-93 -34zM758 -20q-54 0 -91.5 34t-37.5 90q0 61 37 95t92 34q56 0 93.5 -34t37.5 -95q0 -56 -38 -90t-93 -34zM1229 -20q-54 0 -91.5 34t-37.5 90q0 61 37 95t92 34 q56 0 93.5 -34t37.5 -95q0 -56 -38 -90t-93 -34z" />
<glyph unicode="&#x202f;" horiz-adv-x="409" />
<glyph unicode="&#x2030;" horiz-adv-x="2637" d="M393 688q-93 0 -164.5 61t-109 164t-37.5 230q0 192 81 301.5t230 109.5q150 0 232 -109.5t82 -301.5q0 -125 -37.5 -228t-110 -165t-166.5 -62zM432 0h-207v4l1227 1532h207v-4zM393 817q51 0 84 43.5t46.5 110t13.5 155.5q0 283 -144 283q-143 0 -143 -281 q0 -90 13 -157t46 -110.5t84 -43.5zM2243 -20q-93 0 -164.5 60.5t-109.5 163.5t-38 230q0 191 81.5 301.5t230.5 110.5q150 0 231.5 -110t81.5 -302q0 -125 -37.5 -227.5t-109.5 -164.5t-166 -62zM1497 -20q-93 0 -164.5 60.5t-109 163.5t-37.5 230q0 192 81 302t230 110 q150 0 231.5 -110t81.5 -302q0 -125 -37.5 -227.5t-109.5 -164.5t-166 -62zM2243 109q51 0 84 43.5t46 110t13 155.5q0 282 -143 282q-144 0 -144 -280q0 -90 13.5 -157t46.5 -110.5t84 -43.5zM1497 109q51 0 84 43.5t46 110t13 155.5q0 282 -143 282t-143 -280 q0 -90 13 -157t46 -110.5t84 -43.5z" />
<glyph unicode="&#x2039;" horiz-adv-x="909" d="M596 94l-494 434v9l496 434h209l-397 -439l397 -438h-211z" />
<glyph unicode="&#x203a;" horiz-adv-x="909" d="M313 971l494 -434v-9l-496 -434h-209l398 438l-398 439h211z" />
<glyph unicode="&#x205f;" horiz-adv-x="512" />
<glyph unicode="&#x20ac;" horiz-adv-x="1253" d="M852 -20q-185 0 -324 74t-200 220h-256l43 152h174q-4 50 -4 76q0 33 2 49h-215l43 151h198q53 168 191 255t319 87q149 0 301 -32l37 -238h-4q-160 84 -340 84q-208 0 -287 -156h521l-43 -151h-519q-2 -16 -2 -55q0 -30 7 -70h557l-43 -152h-455q50 -66 125.5 -102.5 t167.5 -36.5q133 0 293 88h4l-37 -192q-34 -19 -107.5 -35t-146.5 -16z" />
<glyph unicode="&#x2122;" horiz-adv-x="1392" d="M573 1391l-200 61l26 -477h-157l28 475l-198 -59h-11l17 145h491l15 -145h-11zM961 975l-150 311l-49 -311h-141l124 561h60l166 -356l178 356h65l117 -561h-141l-49 311l-166 -311h-14z" />
<glyph unicode="&#x25fc;" horiz-adv-x="1025" d="M0 1025h1025v-1025h-1025v1025z" />
<glyph unicode="&#xe023;" horiz-adv-x="1431" d="M973 -20q-245 0 -421 136t-233 398h-268l43 152h203q-2 29 -2 88q0 38 4 108h-248l43 152h230q32 134 98 239.5t153.5 170.5t188.5 98.5t209 33.5q171 0 330 -38l36 -248h-4q-168 88 -364 88q-58 0 -117.5 -17.5t-120.5 -55.5t-112 -107.5t-80 -163.5h704l-43 -152h-692 q-4 -62 -4 -98t4 -98h735l-43 -152h-661q51 -169 167.5 -264.5t274.5 -95.5q144 0 336 100h4l-39 -227q-183 -47 -311 -47z" />
<glyph unicode="&#xe09b;" horiz-adv-x="993" d="M481 -293h-4v285q-170 38 -272.5 183.5t-102.5 348.5q0 210 104.5 340.5t270.5 167.5v182l176 103h4v-275q116 -8 191 -47l41 -239h-4q-137 102 -291 102q-126 0 -207.5 -85t-81.5 -253q0 -189 83.5 -287t225.5 -98q74 0 138 25t135 69h4l-21 -143q-32 -32 -90 -60.5 t-123 -39.5v-176z" />
<glyph unicode="&#xe0a8;" horiz-adv-x="1132" d="M504 -293v273q-155 5 -340 69l-41 279h4q147 -100 238 -141.5t196 -41.5t163 59.5t58 151.5q0 83 -42.5 147t-137.5 126l-203 133q-258 171 -258 397q0 154 93 258.5t270 130.5v178l176 103h4v-275q153 -9 260 -38l41 -283h-4q-111 72 -207 108.5t-205 36.5 q-93 0 -152 -48t-59 -136q0 -76 40 -129.5t147 -126.5l133 -90q77 -52 130.5 -97.5t99.5 -100.5t68.5 -117t22.5 -132q0 -63 -17.5 -123t-53.5 -116.5t-99 -99.5t-145 -64v-188l-176 -103h-4z" />
<glyph unicode="&#xe0af;" horiz-adv-x="1241" d="M621 -20q-114 0 -208.5 42.5t-154.5 111t-92.5 151.5t-32.5 168q0 128 61 229t177 154q-77 57 -122.5 144t-45.5 196q0 167 114 273.5t304 106.5t303.5 -106.5t113.5 -273.5q0 -110 -45.5 -196t-122.5 -144q115 -55 176.5 -156.5t61.5 -226.5q0 -86 -32.5 -169 t-92 -151.5t-154 -110.5t-208.5 -42zM621 903q102 0 158.5 73t56.5 169q0 89 -56.5 155t-158.5 66t-158.5 -66t-56.5 -155q0 -95 56.5 -168.5t158.5 -73.5zM621 147q92 0 158.5 43.5t96 108.5t29.5 143q0 121 -75.5 202t-208.5 81q-134 0 -209.5 -79.5t-75.5 -203.5 q0 -120 74.5 -207.5t210.5 -87.5z" />
<glyph unicode="&#xe0b9;" horiz-adv-x="2480" d="M1055 807l-19 459l-405 -682h416zM1829 377h-561l8 -205h254q282 0 441 165t159 470q-1 256 -152.5 400.5t-414.5 144.5h-289l-8 -183h553l22 -182h-8l-573 55l-11 -202l557 8l-10 -154l-545 29l11 -229l579 73h8zM1026 0l16 446h-491l-266 -446h-275v4l1016 1518v14h555 q170 0 309.5 -47.5t241.5 -138t158.5 -232t56.5 -321.5q0 -169 -56 -314t-158.5 -252.5t-258 -169t-344.5 -61.5h-504z" />
<glyph unicode="&#xe0ba;" horiz-adv-x="2428" d="M1001 584l21 657l-391 -657h370zM983 0l14 446h-446l-266 -446h-275v4l1022 1532h68l958 -1153l-41 1153h238l-70 -1536h-63l-953 1141l60 -1141h-246z" />
<glyph unicode="&#xe0bb;" horiz-adv-x="2816" d="M1004 584l22 663l-395 -663h373zM983 0l16 446h-448l-266 -446h-275v4l1026 1532h64l958 -1153l-35 999l-540 -94h-4l43 248h1231l43 -248h-5l-542 94l-64 -1382h-63l-953 1141l52 -1141h-238z" />
<glyph unicode="&#xe0bc;" horiz-adv-x="2134" d="M1036 0l17 446h-502l-266 -446h-275v4l1026 1532l11 -254l-416 -698h428l8 223l-31 729h414q215 0 338 -105t123 -274q0 -151 -79.5 -257t-242.5 -150l494 -746v-4h-295l-367 723v115q133 15 206 83.5t73 186.5q0 106 -75.5 175t-219.5 69h-119l-24 -545l32 -807h-258z " />
<glyph unicode="&#xe0bd;" horiz-adv-x="3244" d="M2152 160q85 0 133 52t48 138q0 65 -32.5 119.5t-94.5 110.5l-234 206q-196 175 -196 410q0 25 2 37h-2q-217 141 -361 141q-76 0 -122 -40t-46 -113q0 -60 27.5 -113t95.5 -125l217 -229q50 -53 79 -88t59.5 -83t44.5 -99t14 -109q0 -21 -2 -29q119 -96 203.5 -141 t166.5 -45zM1030 1196q0 40 6 74l-383 -656h764l-190 189q-197 194 -197 393zM295 0h-285v4l951 1534h4l94 -199q41 96 139.5 151.5t245.5 55.5q188 0 295 -30l39 -275q18 132 133 213.5t313 81.5h846l41 -213h-4l-887 51h-27q-96 0 -148 -45t-52 -131q0 -113 123 -231 l118 -113l842 20l-20 -190l-684 39q88 -88 133 -170t45 -186q0 -126 -72 -222l649 91h4l-43 -236h-948q-73 0 -168 20.5t-153 51.5l-39 254q-6 -49 -25 -94.5t-55 -88.5t-85.5 -74t-122.5 -50t-161 -19q-73 0 -158.5 20t-140.5 50l-41 278h4q128 -102 212.5 -145t168.5 -43 q96 0 143.5 53t47.5 137q0 66 -33 127h-961z" />
<glyph unicode="&#xe0be;" horiz-adv-x="2449" d="M1653 -20q-230 0 -378 122t-194 344h-530l-266 -446h-275v4l1026 1532h252l-41 -885q0 -242 110.5 -368.5t295.5 -126.5q187 0 294 126t107 369l-39 885h250l-24 -885q0 -315 -153 -493t-435 -178zM1061 651l-17 625l-413 -692h432q-2 23 -2 67z" />
<glyph unicode="&#xe0bf;" horiz-adv-x="1138" d="M502 -20q-161 0 -338 71l-41 240h16q150 -92 225.5 -118t155.5 -26q138 0 210.5 83t72.5 221q0 122 -87.5 195t-236.5 73q-107 0 -227 -53h-29l-26 870h776l31 -199h-5l-585 80l-23 -551q62 27 168 27q187 0 317 -120.5t130 -303.5q0 -74 -16.5 -142.5t-54.5 -132.5 t-95 -111t-143.5 -75t-194.5 -28z" />
<glyph unicode="&#xe0c5;" horiz-adv-x="1978" d="M991 584l-284 733l-242 -733h526zM1219 0l-175 446h-624l-148 -446h-262v4l611 1532h210l469 -1245l396 1245h262v-4l-602 -1532h-137z" />
<glyph unicode="&#xe0ca;" horiz-adv-x="1366" d="M1335 512h-379l17 -512h-225l16 512h-733v37l905 1012h37l-23 -887h385v-162zM768 674l-6 456l-422 -456h428z" />
<glyph unicode="&#xe0e4;" horiz-adv-x="1224" d="M133 1073q0 199 127.5 331t353.5 132q118 0 211 -37.5t150.5 -103.5t87 -151t29.5 -183q0 -41 -6.5 -84t-22.5 -91t-28 -82.5t-38 -88t-37.5 -76t-41.5 -78.5t-35 -65l-275 -516h-272v4l493 718q-120 -96 -270 -96q-176 0 -301 138t-125 329zM889 1073q0 115 -72 192.5 t-203 77.5q-133 0 -205.5 -76t-72.5 -194q0 -135 73 -218t207 -83q111 0 192 77.5t81 223.5z" />
<glyph unicode="&#xe0ea;" horiz-adv-x="1392" d="M821 610l82 281h-317l-82 -281h317zM643 4l133 451h-319l-133 -455h-162v4l133 451h-254l41 155h258l82 281h-248l41 156h254l143 489h162v-4l-143 -485h319l144 489h161v-4l-143 -485h240l-41 -156h-244l-82 -281h234l-41 -155h-240l-133 -455h-162v4z" />
<glyph unicode="&#xe0f0;" horiz-adv-x="774" d="M305 0l45 1243l-268 -104v86l330 311h114l23 -1536h-244z" />
<glyph unicode="&#xe102;" horiz-adv-x="1130" d="M184 0v4l662 1337h-744v195h988v-16l-650 -1520h-256z" />
<glyph unicode="&#xe108;" horiz-adv-x="1236" d="M1104 465q0 -94 -32.5 -180t-92 -154.5t-154 -109.5t-209.5 -41q-119 0 -213.5 42.5t-152 113.5t-87.5 158.5t-30 182.5q0 55 14 115.5t42.5 125t51.5 109t61.5 113t51.5 92.5l269 504h272v-4l-487 -707q122 97 264 97q182 0 307 -129t125 -328zM336 444 q0 -127 73.5 -212t206.5 -85q136 0 210.5 84t74.5 213t-75 208t-212 79q-112 0 -195 -74t-83 -213z" />
<glyph unicode="&#xe10e;" horiz-adv-x="1218" d="M61 0v4l396 551h-291l41 152h264q-63 81 -95.5 125.5t-69.5 106.5t-52.5 117.5t-15.5 114.5q0 167 120.5 276t339.5 109q141 0 269 -40l37 -259h-5q-171 125 -317 125q-105 0 -169 -58.5t-64 -160.5q0 -25 3 -48t13 -49t17 -45t26 -48.5t29 -46.5t37 -51.5t39.5 -50.5 t46 -58t47.5 -59h387l-41 -152h-377l-264 -371h725v-184h-1076z" />
<glyph unicode="&#xe113;" horiz-adv-x="1128" d="M492 -20q-166 0 -338 71l-41 240h16q135 -80 211 -112t164 -32q141 0 215 80.5t74 206.5q0 90 -47 156.5t-118 97.5t-155 31q-79 0 -151 -19v72l354 625l-557 -54h-4l41 193h833v-20l-426 -637q135 -3 234.5 -63t148.5 -155.5t49 -211.5q0 -64 -14.5 -126t-51.5 -125.5 t-92.5 -110.5t-144.5 -77t-200 -30z" />
<glyph unicode="&#xe11a;" horiz-adv-x="1114" d="M51 0v23l441 661q135 196 181 284.5t46 178.5q0 103 -64 161t-174 58q-70 0 -143 -34.5t-162 -96.5h-4l37 250q55 31 140.5 51t154.5 20q104 0 186 -34t131.5 -91t75 -127t25.5 -147q0 -105 -44 -209.5t-139 -228.5l-426 -586l705 76h4l-43 -209h-928z" />
<glyph unicode="&#xe126;" horiz-adv-x="1296" d="M1122 422h-356l16 -422h-260l15 422h-387l40 151h353l6 185h-399l40 151h342l-522 623v4h279l379 -514l364 514h254v-4l-518 -623h395l-41 -151h-368l8 -185h401z" />
<glyph unicode="&#xe12b;" horiz-adv-x="1310" d="M655 -20q-131 0 -234.5 63.5t-168 175t-97.5 257t-32 315.5q0 363 142.5 564t389.5 201t390 -201t143 -564q-1 -166 -35.5 -311t-99 -257.5t-167.5 -177.5t-231 -65zM655 147q154 0 242 171.5t88 482.5q-1 265 -91.5 415t-238.5 150t-238.5 -151t-90.5 -412 q0 -312 87.5 -484t241.5 -172z" />
<glyph unicode="&#xe150;" horiz-adv-x="1611" d="M1454 90q-77 -40 -210 -75t-273 -35q-248 0 -436.5 93t-295 274t-106.5 427q0 375 227.5 578.5t634.5 203.5q262 0 473 -71l41 -291h-4q-237 160 -553 160q-73 0 -142.5 -13t-138.5 -39.5t-126.5 -73t-102 -108t-69.5 -149.5t-25 -193q0 -284 164 -454t463 -170 q276 0 516 172h4zM1124 375l19 332h-346l16 -332h-192l20 405l-20 367h192l-18 -316h348l-19 316h193l-21 -367l21 -405h-193z" />
<glyph unicode="&#xe151;" horiz-adv-x="1648" d="M195 0l28 807l-28 729h555q170 0 309.5 -47.5t241.5 -138t158.5 -232t56.5 -321.5q0 -168 -56 -313.5t-159 -253t-258.5 -169t-344.5 -61.5h-503zM997 377h-561l8 -205h254q282 0 441 165t159 470q-1 256 -152.5 400.5t-414.5 144.5h-289l-8 -183h553l23 -182h-9l-573 55 l-10 -202l557 8l-10 -154l-545 29l10 -229l580 73h8z" />
<glyph unicode="&#xe152;" horiz-adv-x="2656" d="M1860 -20q-197 0 -335.5 91t-203.5 259q-102 -156 -268.5 -243t-378.5 -87h-479l28 807l-28 729h514q158 0 293 -47.5t236 -138t158.5 -232.5t57.5 -321v-146q0 -242 110.5 -368.5t295.5 -126.5q187 0 294 126t107 369l-39 885h250l-25 -885q0 -315 -152.5 -493 t-434.5 -178zM416 807l28 -635h230q254 0 408.5 167t154.5 468q-1 126 -41 229t-110.5 172t-166.5 106.5t-208 37.5h-269z" />
<glyph unicode="&#xe153;" horiz-adv-x="2850" d="M2324 561q102 0 180.5 68t78.5 174q0 61 -21 120t-68 138l-317 475h277l204 -377q111 -187 111 -356q0 -89 -38.5 -167.5t-102 -132.5t-146 -85t-168.5 -31q-283 0 -473 322l-534 827h299l397 -735q77 -127 153.5 -183.5t167.5 -56.5zM991 584h385l-375 682l-18 -459z M156 0l-43 236h4l647 -115l27 637l-562 -58l-20 191l582 -19l-25 537l-629 -86h-4l41 213h838l964 -1532v-4h-278l-246 446h-457l17 -446h-856z" />
<glyph unicode="&#xe154;" horiz-adv-x="2543" d="M1317 414l29 596l-29 526h252l-39 -989l469 110h4l-39 -243h-647zM1884 805l29 360l-29 371h510l39 -186h-4l-344 65l-17 -188l291 16l-16 -158l-279 48l21 -215l352 73h4l-37 -186h-520zM156 0l-43 236h4l651 -97l23 600l-562 -39l-20 191l582 -19l-21 514l-623 -63h-4 l41 213h832l-39 -1407l657 129h4l-41 -258h-1441z" />
<glyph unicode="&#xe155;" horiz-adv-x="2250" d="M156 0l-43 236h4l692 -101l16 606l-596 -41l-20 191l620 -19l15 517l-697 -66h-4l41 213h738l958 -1153l-41 1153h238l-70 -1536h-63l-953 1141l51 -1141h-886z" />
<glyph unicode="&#xe156;" horiz-adv-x="2637" d="M156 0l-43 236h4l692 -101l16 606l-596 -41l-20 191l620 -19l15 517l-697 -66h-4l41 213h738l958 -1153l-35 999l-540 -94h-5l43 248h1231l43 -248h-4l-542 94l-64 -1382h-63l-953 1141l51 -1141h-886z" />
<glyph unicode="&#xe157;" horiz-adv-x="1910" d="M156 0l-43 236h4l700 -115l25 624l-613 -45l-20 191l633 -21l-23 539l-672 -86h-4l41 213h1043q215 0 338 -105t123 -274q0 -151 -79.5 -257t-242.5 -150l494 -746v-4h-295l-367 723v115q133 15 206 83.5t73 186.5q0 106 -75.5 175t-219.5 69h-119l-25 -545l33 -807h-915 z" />
<glyph unicode="&#xe158;" horiz-adv-x="2906" d="M1815 160q85 0 132.5 52t47.5 138q0 65 -32.5 119.5t-94.5 110.5l-234 206q-196 175 -196 410v16q-78 53 -125.5 82t-115 54.5t-126.5 25.5h-4l-23 -2q-63 -6 -99 -44t-36 -107q0 -60 27.5 -113t95.5 -125l217 -229q50 -53 79 -88t59.5 -83t44.5 -99t14 -109 q0 -21 -2 -29q119 -96 203.5 -141t167.5 -45zM1442 326q-6 -48 -23 -92.5t-51.5 -87t-82 -74t-118 -51t-155.5 -21.5h-856l-43 236h4l909 -76q109 0 156 54t47 140q0 50 -19.5 95.5t-45 76t-70.5 74.5l-131 129l-773 -43l-20 191l666 -17q-144 167 -144 336q0 92 39 160 l-594 -33h-4l41 213h932q149 0 295 -41l39 -266q13 138 127.5 222.5t318.5 84.5h846l41 -213h-4l-887 51h-27q-96 0 -148 -45t-52 -131q0 -113 123 -231l118 -113l842 20l-20 -190l-684 39q88 -88 133 -170t45 -186q0 -126 -72 -222l649 91h4l-43 -236h-948q-73 0 -168 20.5 t-153 51.5z" />
<glyph unicode="&#xe159;" horiz-adv-x="2549" d="M217 0l-33 225h9l569 -106l10 356l-500 -53l-16 182l520 -16l10 327l-563 -84h-8l35 205h541l10 342l-715 -90h-4l43 248h2300l43 -248h-4l-713 90l10 -344h490l35 -205h-9l-512 76l11 -317l469 14l-17 -180l-448 47l10 -340l518 96h8l-32 -225h-748l43 1378h-606 l43 -1378h-799z" />
<glyph unicode="&#xe15a;" horiz-adv-x="2293" d="M1503 0h-1347l-43 236h4l968 -84q-180 180 -180 520l-2 73l-674 -45l-20 191l690 -21l-14 519l-738 -66h-4l41 213h949l-41 -864q0 -242 110 -369t295 -127q186 0 293.5 126.5t107.5 369.5l-38 864h249l-24 -864q0 -315 -152.5 -493.5t-429.5 -178.5z" />
<glyph unicode="&#xe15b;" horiz-adv-x="2338" d="M1307 104q-65 -50 -192.5 -87t-266.5 -37q-158 0 -289.5 53.5t-226 153.5t-147 249.5t-52.5 333.5q0 365 219.5 575.5t591.5 210.5q159 0 307.5 -38t259.5 -115l39 -275h-4q-131 105 -290.5 165.5t-333.5 60.5q-84 0 -163 -18t-155.5 -61.5t-132.5 -108.5t-90.5 -167.5 t-34.5 -230.5q0 -278 141 -446t385 -168q62 0 134.5 16t117.5 43l-57 514v4l240 164l645 -616l-25 1257h238l-58 -1536h-149l-651 623v-519z" />
<glyph unicode="&#xe15c;" horiz-adv-x="4165" d="M1634 807l17 -643q185 41 299 204.5t114 409.5q-1 226 -113 376t-302 185zM1446 877l-21 462q-167 -32 -275.5 -155t-131.5 -307h428zM2279 772q0 -163 -53.5 -308.5t-148 -253.5t-235 -171.5t-304.5 -63.5q-212 0 -378.5 99t-259.5 268.5t-103 380.5h-381l30 -723h-251 l26 807l-26 729h251l-30 -659h385q32 309 236 492t501 183q169 0 312 -61.5t243 -177.5l203 264h12l502 -674l528 674h27l375 -739q150 -28 241.5 -137t91.5 -271q0 -195 -120 -322.5t-314 -127.5q-195 0 -314.5 126t-119.5 326q0 153 83.5 258.5t221.5 140.5l-182 396 l-518 -654h-10l-500 666l-84 -123q63 -155 63 -344zM1421 164l25 559h-432q13 -224 124.5 -372t282.5 -187zM3639 135q104 0 173 80t69 211q-1 121 -65.5 182.5t-176.5 61.5q-111 0 -176 -60.5t-65 -181.5q0 -133 68.5 -213t172.5 -80z" />
<glyph unicode="&#xe15d;" horiz-adv-x="2543" d="M340 1546q67 0 107 -35.5t40 -97.5q0 -64 -41 -103.5t-106 -39.5q-62 0 -103.5 39.5t-41.5 103.5q0 62 39.5 97.5t105.5 35.5zM764 0l29 807l-29 729h252l-39 -1407l657 129h4l-41 -258h-833zM1317 414l29 596l-29 526h252l-39 -989l469 110h4l-39 -243h-647zM219 0 l33 684l-45 469h272l-37 -469l25 -684h-248zM1884 805l29 360l-29 371h510l39 -186h-4l-344 65l-17 -188l291 16l-16 -158l-279 48l21 -215l352 73h4l-37 -186h-520z" />
<glyph unicode="&#xe15e;" horiz-adv-x="3307" d="M287 743q0 -67 -37.5 -107t-102.5 -40q-61 0 -99 41t-38 106q0 62 38 104t99 42q65 0 102.5 -40t37.5 -106zM2245 776q0 -163 -53.5 -308.5t-148.5 -253.5t-235.5 -171t-304.5 -63q-196 0 -354.5 85.5t-254.5 233.5t-124 338l-317 -23v248l309 -20q14 216 114.5 379 t263 249t363.5 86q175 0 322.5 -66.5t247.5 -189.5l864 -925l-41 1161h237l-69 -1536h-64l-755 815v-39zM1503 156q110 0 206.5 44t167.5 123.5t112 198t41 260.5q-1 259 -146.5 415.5t-380.5 156.5q-222 1 -366 -142t-158 -378l754 28v-248l-746 27q36 -224 178 -354.5 t338 -130.5z" />
<glyph unicode="&#xe15f;" horiz-adv-x="4192" d="M2626 0l-445 1073l-164 -1073h-254l326 1536h102l447 -1098l457 1098h841l41 -213h-4l-751 68l112 -521l608 21l-20 -191l-559 37l127 -594l606 93h4l-43 -236h-790l-170 1092l-467 -1092h-4zM147 879q65 0 102.5 -40t37.5 -106q0 -67 -37.5 -107t-102.5 -40 q-61 0 -99 41t-38 106q0 62 38 104t99 42zM1010 -20q-164 0 -365 69l-41 279h4q147 -100 238 -141.5t196 -41.5t163.5 61t58.5 156q0 86 -39 147.5t-131 123.5l-641 -29v248l362 -31q-192 157 -192 348q0 171 122 279t347 108q91 0 185.5 -12.5t147.5 -27.5l41 -283h-4 q-111 71 -209.5 108t-201.5 37q-96 0 -153.5 -50.5t-57.5 -137.5q0 -68 36.5 -121t108.5 -104l174 -123q6 -4 19.5 -13.5t19.5 -13.5l590 43l-51 -256l-332 21q76 -102 76 -222q0 -77 -25.5 -148t-78.5 -134t-147.5 -101t-219.5 -38z" />
<glyph unicode="&#xe160;" horiz-adv-x="2248" d="M1767 584l-245 667l-240 -667h485zM195 0l28 807l-28 729h251l-38 -1409l497 90l604 1370h72l657 -1583v-4h-253l-166 446h-586l-160 -446h-878z" />
<glyph unicode="&#xe161;" horiz-adv-x="1599" d="M195 0l28 807l-28 729h251l-38 -1409l698 131h4l-41 -258h-874zM745 479l29 547l-29 510h691l41 -213h-4l-484 84l-20 -324l444 19l-20 -191l-424 56l20 -363l494 111h4l-43 -236h-699z" />
<glyph unicode="&#xe162;" horiz-adv-x="3762" d="M195 0l30 807l-30 729h247l-34 -1401l759 123h4l-41 -258h-935zM932 465l31 565l-31 506h248l-31 -506l31 -565h-248zM2247 154q78 0 166.5 16.5t140.5 46.5l-35 518v4h608l-200 453q-261 162 -666 162q-65 0 -130 -12.5t-132 -39t-124 -71.5t-102 -105t-70.5 -146.5 t-25.5 -188.5q0 -288 154 -462.5t416 -174.5zM2746 135q-77 -61 -215.5 -108t-310.5 -47q-163 0 -301 52.5t-239.5 151.5t-158.5 250.5t-57 339.5q0 367 222.5 574.5t615.5 207.5q185 0 346 -30.5t338 -93.5l766 -1428v-4h-295l-268 602h-414z" />
<glyph unicode="&#xe163;" horiz-adv-x="1527" d="M195 0l28 807l-28 729h251l-38 -1407l657 129h4l-41 -258h-833zM748 465l28 586l-28 485h251l-36 -936l469 123h4l-41 -258h-647z" />
<glyph unicode="&#xe164;" horiz-adv-x="5148" d="M2787 584l-245 667l-240 -667h485zM954 0l-444 1073l-164 -1073h-254l326 1536h102l447 -1098l456 1098h97l323 -1505l686 1556h72l649 -1564l496 722l-586 -53l-108 273l702 -64l-412 631v4h279l289 -563l288 563h267v-4l-447 -633l678 49v-248l-645 50l520 -746v-4 h-299l-395 696l-352 -696h-521l-165 446h-586l-160 -446h-498l-174 1083l-463 -1083h-4zM4862 819q0 67 37 107.5t102 40.5q61 0 99 -41.5t38 -106.5q0 -62 -38 -103.5t-99 -41.5q-65 0 -102 39.5t-37 105.5z" />
<glyph unicode="&#xe165;" horiz-adv-x="2541" d="M954 0l-444 1073l-164 -1073h-254l326 1536h102l447 -1098l456 1098h842l41 -213h-4l-752 68l113 -521l608 21l-20 -191l-559 37l127 -594l606 93h4l-43 -236h-791l-170 1092l-467 -1092h-4z" />
<glyph unicode="&#xe166;" horiz-adv-x="2240" d="M1313 0l-953 1141l52 -1141h-238l53 1536h64l958 -1153l-41 1153h848l41 -213h-4l-651 61l-15 -512l605 19l-21 -191l-588 41l-16 -602l717 97h4l-43 -236h-772z" />
<glyph unicode="&#xe167;" horiz-adv-x="2686" d="M1313 0l-953 1141l52 -1141h-238l53 1536h64l958 -1153l-41 1153h230l876 -1130l-39 1130h238l-70 -1536h-78l-935 1206l-54 -1206h-63z" />
<glyph unicode="&#xe168;" horiz-adv-x="2007" d="M1313 0l-953 1141l52 -1141h-238l53 1536h64l958 -1153l-35 999l-540 -94h-4l43 248h1231l43 -248h-5l-542 94l-64 -1382h-63z" />
<glyph unicode="&#xe169;" horiz-adv-x="2375" d="M2089 727q0 67 37 107t102 40q61 0 99 -41t38 -106q0 -62 -38 -103.5t-99 -41.5q-65 0 -102 39.5t-37 105.5zM877 156q195 0 336.5 129.5t177.5 351.5l-748 -29v248l758 -29q-13 241 -156 384t-368 143q-235 1 -381 -157t-146 -413q0 -143 40.5 -262t111.5 -198.5 t167.5 -123.5t207.5 -44zM1923 608l-315 23q-21 -138 -83 -257t-154.5 -206.5t-220 -137.5t-273.5 -50q-220 0 -391 106t-262 286.5t-91 403.5q0 176 57 323.5t156.5 247t236 154.5t294.5 55q200 0 363 -86.5t263.5 -251.5t112.5 -382l307 20v-248z" />
<glyph unicode="&#xe16a;" horiz-adv-x="2680" d="M877 156q110 0 206.5 44t167.5 123.5t111.5 198t40.5 260.5q-1 259 -146 415.5t-380 156.5q-235 1 -381 -157t-146 -413q0 -143 40.5 -262t111.5 -198.5t167.5 -123.5t207.5 -44zM1618 776q0 -218 -90.5 -398.5t-261 -289t-389.5 -108.5q-220 0 -391 106t-262 286.5 t-91 403.5q0 176 57 323.5t156.5 247t236 154.5t294.5 55q174 0 321.5 -66.5t247.5 -189.5l864 -925l-41 1161h238l-70 -1536h-63l-756 815v-39z" />
<glyph unicode="&#xe16b;" horiz-adv-x="2820" d="M2023 -20q-193 0 -329 87t-203 248q-98 -156 -256.5 -245.5t-357.5 -89.5q-220 0 -391 106t-262 286.5t-91 403.5q0 176 57 323.5t156.5 247t236 154.5t294.5 55q155 0 289 -53.5t233 -150.5t157 -240t62 -315v-146q0 -242 110 -368.5t295 -126.5q187 0 294.5 126 t107.5 369l-39 885h250l-25 -885q0 -315 -153 -493t-435 -178zM877 156q110 0 206.5 44t167.5 123.5t111.5 198t40.5 260.5q-1 259 -146 415.5t-380 156.5q-235 1 -381 -157t-146 -413q0 -143 40.5 -262t111.5 -198.5t167.5 -123.5t207.5 -44z" />
<glyph unicode="&#xe16c;" horiz-adv-x="4644" d="M3770 0h-1276l29 807l-29 729h426l160 397h254v-4l-278 -393h727q155 -2 288.5 -56.5t231 -151.5t153.5 -239.5t56 -312.5q0 -159 -53.5 -301t-148.5 -247t-235 -166.5t-305 -61.5zM2939 -512h-1030l20 512h-276l-193 436h-1028l14 -436h-251l30 807l-30 729h417 q162 0 279.5 -57t177.5 -158l113 215h4l743 -1528l21 533l-29 995h258l-41 -1913l838 127h4zM2718 877l315 4q15 148 76 269t160 208l-529 51zM420 807l4 -107h137q160 0 258.5 87.5t98.5 250.5q0 153 -85 234.5t-276 81.5h-117zM559 573h842l-307 701q34 -81 34 -180 q0 -113 -33 -206t-100.5 -164.5t-178.5 -111t-257 -39.5zM2742 117l525 71q-108 100 -170.5 241t-69.5 306l-311 13zM3770 176q110 0 206.5 42.5t167.5 119.5t112 191.5t41 252.5q-1 165 -67 290.5t-185.5 193t-274.5 67.5q-210 1 -350.5 -121t-169.5 -329l559 8l-20 -191 l-543 25q17 -252 163 -400.5t361 -148.5z" />
<glyph unicode="&#xe16d;" horiz-adv-x="3751" d="M420 807l4 -107h137q160 0 258.5 87.5t98.5 250.5q0 153 -85 234.5t-276 81.5h-117zM559 573h842l-307 701q34 -81 34 -180q0 -113 -33 -206t-100.5 -164.5t-178.5 -111t-257 -39.5zM2591 573h561l-371 697q15 -66 15 -121v-21q0 -3 -3 -6v-22q-2 0 -2 -2v-8 q-15 -125 -94 -213t-223 -127zM432 436l14 -436h-251l30 807l-30 729h417q162 0 279.5 -57t177.5 -158l113 215h4l735 -1513l31 784l-31 729h449q4 0 6 -2h18q6 0 10 -2q130 -12 221 -67t134 -144l102 215h4l877 -1532v-4h-285l-233 436h-543l287 -432v-4h-295l-367 723v115 q133 15 206 83.5t73 186.5q0 106 -75.5 175t-219.5 69h-119l-25 -545l33 -807h-526l-193 436h-1028z" />
<glyph unicode="&#xe16e;" horiz-adv-x="2328" d="M420 807l26 -807h-251l30 807l-30 729h411q243 0 379.5 -116t136.5 -304q0 -135 -49 -239h846l-37 659h252l-27 -729l27 -807h-252l37 723h-813l31 -723h-252l22 698q-127 -76 -327 -82v127q151 10 241 88.5t90 229.5q0 142 -85 217.5t-275 75.5h-111z" />
<glyph unicode="&#xe16f;" horiz-adv-x="2779" d="M1485 279q176 0 290.5 131.5t114.5 349.5q-2 201 -112 322t-293 120q-181 1 -293.5 -120.5t-112.5 -319.5q0 -220 115 -351.5t291 -131.5zM2208 -385q-70 0 -153.5 14t-145.5 35l-35 254h10q129 -86 199.5 -120t148.5 -34q82 0 123 45.5t41 116.5q0 64 -35 113t-118 104 l-150 99q-80 54 -127 110q-82 -112 -205 -175.5t-276 -63.5q-126 0 -234 43.5t-185 120.5t-125 181.5t-60 225.5q-121 -62 -301 -68v127q151 10 241 88.5t90 229.5q0 142 -85 217.5t-275 75.5h-111l-20 -547l26 -807h-251l30 807l-30 729h411q191 0 318 -73t174 -201 q157 129 387 129q237 0 403.5 -142.5t198.5 -384.5q42 15 72 19l36 958l-454 -96h-8l34 233h1018l35 -233h-8l-457 96l35 -954q94 -9 166 -27l35 -252h-11q-86 63 -160.5 94t-154.5 31q-78 0 -124 -35.5t-46 -101.5q0 -53 31.5 -97.5t109.5 -99.5l119 -82 q127 -87 187.5 -166.5t60.5 -191.5q0 -63 -22.5 -122t-68 -109.5t-124 -81.5t-180.5 -31z" />
<glyph unicode="&#xe170;" horiz-adv-x="1810" d="M1729 -276h-5l-923 256q-306 41 -487 257t-181 539q0 236 97 413.5t272.5 272t404.5 94.5q337 0 544.5 -212t207.5 -568q0 -291 -149.5 -497.5t-407.5 -274.5h586zM907 156q113 0 211 44t170.5 123.5t114 198t41.5 260.5q-2 263 -143.5 417.5t-393.5 154.5 q-260 1 -408.5 -155t-148.5 -415q0 -143 43 -262t117.5 -198.5t176.5 -123.5t220 -44zM903 489q71 0 112.5 49.5t41.5 151.5l-29 383h203l-14 -383q0 -159 -80 -253.5t-234 -94.5q-153 0 -232 94t-79 254l-17 383h203l-26 -383q0 -101 41.5 -151t109.5 -50z" />
<glyph unicode="&#xe171;" horiz-adv-x="2455" d="M907 156q227 0 379 165.5t158 440.5l-4 96q-22 230 -161.5 363t-371.5 133q-260 1 -408.5 -155t-148.5 -415q0 -143 43 -262t117.5 -198.5t176.5 -123.5t220 -44zM903 489q71 0 112.5 49.5t41.5 151.5l-29 383h203l-14 -383q0 -159 -80 -253.5t-234 -94.5q-153 0 -232 94 t-79 254l-17 383h203l-26 -383q0 -101 41.5 -151t109.5 -50zM2300 0h-1204q-54 -13 -107 -16l156 -496h-311v494q-166 13 -300.5 81.5t-221 176t-133 245t-46.5 291.5q0 236 97 413.5t272.5 272t404.5 94.5q109 0 193 -20h1181l41 -219h-4l-897 57q204 -185 234 -500l592 17 l-21 -191l-567 39q-8 -173 -74 -327.5t-188 -259.5l942 90h4z" />
<glyph unicode="&#xe172;" horiz-adv-x="1902" d="M346 0h-295v4l494 746q-163 44 -242.5 150t-79.5 257q0 169 123 274t338 105h1045l40 -213h-4l-632 88l-23 -539l584 19l-21 -191l-563 60l25 -641l651 117h4l-43 -236h-856l31 807l-23 545h-170q-144 0 -219.5 -69t-75.5 -175q0 -118 73 -186.5t206 -83.5v-115z" />
<glyph unicode="&#xe173;" horiz-adv-x="1781" d="M1253 145q87 0 132 52.5t45 130.5q0 76 -38 134t-118 136l-191 188q-196 196 -196 410q0 25 2 37h-2q-210 145 -367 145q-84 0 -128 -40t-44 -113q0 -56 26 -107t91 -119l235 -243q48 -49 78.5 -86.5t59.5 -85t43 -99t14 -110.5q0 -31 -2 -45q115 -97 196.5 -141 t163.5 -44zM1243 -20q-73 0 -164 20.5t-149 50.5l-39 264q-9 -65 -37.5 -122t-79 -106.5t-132 -78t-185.5 -28.5q-72 0 -156.5 18t-136.5 45l-41 279h4q119 -96 202 -136.5t165 -40.5q92 0 138 55t46 140q0 78 -33.5 136t-101.5 124l-205 203q-207 207 -207 399 q0 156 110.5 255t313.5 99q153 0 295 -40l39 -273q16 141 126 227t300 86q130 0 293 -30l41 -283h-4q-184 135 -342 135q-97 0 -148 -44.5t-51 -127.5q0 -59 26 -111t97 -128l217 -230q42 -44 65.5 -70.5t53.5 -67.5t46 -74.5t27 -77.5t11 -91q0 -54 -13 -105.5t-44 -101 t-76 -87t-115 -60t-156 -22.5z" />
<glyph unicode="&#xe174;" horiz-adv-x="1439" d="M549 0l43 1389l-567 -101h-5l43 248h1231l43 -248h-4l-569 101l10 -355h488l34 -205h-8l-510 76l10 -317l467 14l-16 -180l-446 47l10 -340l516 96h8l-33 -225h-745z" />
<glyph unicode="&#xe175;" horiz-adv-x="2125" d="M1679 0l37 723h-932l23 -723h-258l43 1389l-567 -101h-5l43 248h1231l43 -248h-4l-569 101l16 -512h936l-37 659h252l-26 -729l26 -807h-252z" />
<glyph unicode="&#xe176;" horiz-adv-x="3704" d="M1772 635h256l-31 -471q191 36 310.5 201t119.5 417q-1 259 -146 415.5t-380 156.5q-235 1 -381 -157t-146 -413t120.5 -420t313.5 -200zM1896 1081q67 0 107.5 -35.5t40.5 -97.5q0 -64 -41.5 -103.5t-106.5 -39.5q-62 0 -103.5 39.5t-41.5 103.5q0 62 39.5 97.5 t105.5 35.5zM2642 776q0 -218 -90.5 -398.5t-261 -289t-389.5 -108.5q-220 0 -391 106t-262 286.5t-91 403.5q0 303 164 514l-557 99l43 -1389h-258l43 1389l-567 -101h-5l43 248h1231l39 -229q101 120 248 184.5t320 64.5q174 0 321.5 -66.5t247.5 -189.5l864 -925 l-41 1161h238l-70 -1536h-63l-756 815v-39z" />
<glyph unicode="&#xe177;" horiz-adv-x="1497" d="M889 952h-111l29 -952h-258l43 1389l-567 -101h-5l43 248h1231l43 -248h-4l-569 101l8 -261h129q184 0 281.5 -79.5t97.5 -212.5q0 -220 -221 -301l366 -525v-10h-270l-252 496v110q84 1 130 52t46 135q0 77 -48.5 118t-141.5 41z" />
<glyph unicode="&#xe178;" horiz-adv-x="2344" d="M1538 1378h-729l43 -1378h-258l43 1378l-612 -90h-5l43 248h2218l43 -248h-4l-610 90l43 -1378h-258z" />
<glyph unicode="&#xe179;" horiz-adv-x="2443" d="M809 1378l43 -1378h-258l43 1378l-612 -90h-5l43 248h2218l43 -248h-4l-610 90l8 -250h129q184 0 281.5 -79.5t97.5 -212.5q0 -220 -221 -301l367 -525v-10h-271l-252 496v110q84 1 130 52t46 135q0 77 -48.5 118t-141.5 41h-113l31 -952h-258l43 1378h-729z" />
<glyph unicode="&#xe17a;" horiz-adv-x="4093" d="M2128 1288l-1344 109l37 -1397h-246l37 1389l-587 -101h-5l43 248h2026l43 -248h-4zM2537 0h-294v4l493 746q-162 44 -241.5 150t-79.5 257q0 169 122.5 274t337.5 105h1045l41 -213h-4l-633 88l-23 -539l584 19l-20 -191l-564 60l25 -641l651 117h4l-43 -236h-856 l31 807l-23 545h-170q-144 0 -219 -69t-75 -175q0 -118 72.5 -186.5t205.5 -83.5v-115zM1610 145q143 0 227 98t84 287l-37 504l240 -20l-21 -494q0 -248 -126.5 -394t-366.5 -146q-242 0 -369 145t-127 395l-22 559l241 -20l-37 -529q0 -190 85.5 -287.5t228.5 -97.5z" />
<glyph unicode="&#xe17b;" horiz-adv-x="2312" d="M1528 0l31 692l-406 627l-389 70l43 -1389h-258l43 1389l-567 -101h-5l43 248h1231l381 -713l363 713h254v-4l-537 -836l33 -696h-260z" />
<glyph unicode="&#xe17c;" horiz-adv-x="2660" d="M1389 651q0 -315 -153 -493t-435 -178q-281 0 -436.5 178.5t-155.5 492.5l-25 885h252l-41 -885q0 -242 110.5 -368.5t295.5 -126.5q187 0 294 126t107 369l-39 885h250l877 -1145l-41 1145h237l-69 -1536h-78l-934 1231z" />
<glyph unicode="&#xe17d;" horiz-adv-x="2080" d="M1368 1352h-39l-602 -1403h-72l-635 1583v4h254l443 -1245l428 1245h280q199 0 321 -112.5t122 -290.5t-99 -302.5t-309 -168.5l580 -658v-4h-295l-490 641v131q189 6 295.5 90.5t106.5 224.5q0 116 -72 190.5t-217 74.5z" />
</font>
</defs>
</svg>
